<?xml version="1.0" encoding="utf-8"?>
<!-- Generator: Adobe Illustrator 16.0.0, SVG Export Plug-In . SVG Version: 6.00 Build 0)  -->
<!DOCTYPE svg PUBLIC "-//W3C//DTD SVG 1.1//EN" "http://www.w3.org/Graphics/SVG/1.1/DTD/svg11.dtd">
<svg version="1.1" xmlns="http://www.w3.org/2000/svg" xmlns:xlink="http://www.w3.org/1999/xlink" x="0px" y="0px"
	 width="461.978px" height="427.479px" viewBox="0 0 461.978 427.479" enable-background="new 0 0 461.978 427.479"
	 xml:space="preserve">
<g id="Layer_1">
</g>
<g id="Layer_2">
	<g>
		<g>
			<g>
				<path fill="#DBEAB5" d="M160.344,164.252c0.082,0,0.161-0.011,0.244-0.013c12.293,0.234,22.311,9.846,23.205,21.97
					c-11.389,0.432-20.915,8.267-23.846,18.838c-2.899-10.456-12.255-18.241-23.48-18.821c0.893-12.198,11.018-21.865,23.408-21.997
					C160.033,164.232,160.188,164.252,160.344,164.252z"/>
				<polygon fill="#A8C06F" points="218.048,119.384 216.587,123.022 206.639,123.022 205.455,115.063 206.851,111.427 
					216.728,115.221 215.345,118.01 				"/>
				<polygon fill="#A8C06F" points="199.751,133.146 198.313,129.102 201.973,128.042 201.973,133.146 				"/>
				<polygon fill="#A8C06F" points="203.821,116.018 204.864,123.022 201.973,123.022 201.973,126.214 197.726,127.445 
					194.31,117.835 				"/>
				<polygon fill="#A8C06F" points="218.059,133.146 218.059,124.069 219.618,120.183 224.964,122.898 221.318,133.146 				"/>
				<path fill="#A8C06F" d="M184.573,205.8c-2.809,0.145-5.495,0.713-8.005,1.648c3.755-3.173,6.584-7.409,8.015-12.244v10.358
					C184.583,205.646,184.573,205.722,184.573,205.8z"/>
				<path fill="#A8C06F" d="M184.583,180.731c-2.487-8.391-9.182-14.988-17.629-17.335c7.942-2.049,14.505-7.684,17.629-15.14
					V180.731z"/>
				<path fill="#A8C06F" d="M160.13,213.474c3.063,0,6.002-0.542,8.725-1.538c-3.955,3.304-6.912,7.719-8.325,12.761
					c-1.349-4.814-4.097-9.064-7.783-12.316C155.086,213.088,157.563,213.474,160.13,213.474z"/>
				<path fill="#A8C06F" d="M153.5,163.343c-8.194,2.207-14.763,8.404-17.497,16.372v-31.722
					C139.053,155.503,145.57,161.219,153.5,163.343z"/>
				<path fill="#A8C06F" d="M143.164,206.992c-2.267-0.714-4.669-1.13-7.157-1.21c0-0.025-0.004-0.052-0.004-0.079v-9.481
					C137.438,200.408,139.931,204.105,143.164,206.992z"/>
				<path fill="#A8C06F" d="M184.583,215.219v15.403h-15.037C176.43,227.917,181.924,222.29,184.583,215.219z"/>
				<path fill="#A8C06F" d="M136.003,215.237c2.664,7.063,8.153,12.682,15.031,15.385h-15.031V215.237z"/>
				<polygon fill="#A8C06F" points="234.921,91.778 234.921,95.435 186.339,95.435 186.339,91.803 186.636,91.813 186.636,91.778 
									"/>
				<rect x="186.339" y="216.902" fill="#A8C06F" width="48.582" height="6.094"/>
				<rect x="186.339" y="224.752" fill="#A8C06F" width="48.582" height="5.87"/>
				<path fill="#DBEAB5" d="M234.921,45.213v36.774c-3.636-9.854-13.126-16.897-24.227-16.897c-1.985,0-3.916,0.232-5.773,0.658
					l-8.885-20.535H234.921z"/>
				<path fill="#DBEAB5" d="M196.319,69.474c-4.58,3.08-8.118,7.595-9.98,12.892V45.213h2.319L196.319,69.474z"/>
				<path fill="#DBEAB5" d="M234.853,186.878l-0.104-0.078c-6.733,8.659-14.228,4.749-18.256,2.647l-0.637-0.331
					c-2.123-1.083-4.183-2.127-6.763-2.086v-44.333h25.827v42.025C234.876,185.433,234.862,186.157,234.853,186.878z"/>
				<path fill="#DBEAB5" d="M186.339,142.697h21v44.528c-1.838,0.364-3.942,1.276-6.489,3.047
					c-5.568,3.874-12.997-2.034-14.511-3.331V142.697z"/>
				<g>
					<rect x="235.71" y="141.688" fill-rule="evenodd" clip-rule="evenodd" fill="#DBEAB5" width="86.578" height="45.649"/>
				</g>
				<path fill-rule="evenodd" clip-rule="evenodd" fill="#A8C06F" d="M254.619,142.167c-5.533,12.966,5.149,14.516,7.388,23.118
					c2.616,10.066-6.968,22.262-6.968,22.262h-14.026c0,0,9.587-12.195,6.968-22.262c-2.265-8.707-12.85-10.282-6.844-23.686"/>
				<path fill-rule="evenodd" clip-rule="evenodd" fill="#A8C06F" d="M282.876,141.688c-6.008,13.404,4.908,14.89,7.177,23.597
					c2.618,10.066-6.97,22.262-6.97,22.262h-14.02c0,0,9.584-12.195,6.966-22.262c-2.245-8.634-12.992-10.163-7.328-23.245"/>
				<path fill-rule="evenodd" clip-rule="evenodd" fill="#A8C06F" d="M311.085,187.547c0,0,9.585-12.195,6.965-22.262
					c-2.229-8.562-12.789-10.458-7.436-23.245h-14c-5.354,12.787,5.208,14.684,7.438,23.245c2.618,10.066-6.966,22.262-6.966,22.262
					"/>
				<path fill-rule="evenodd" clip-rule="evenodd" fill="#FFFFFF" d="M322.288,187.045c7.074,0,12.807,5.165,12.807,11.536
					c0,6.37-5.732,11.533-12.807,11.533"/>
				<g>
					<rect x="235.8" y="187.338" fill-rule="evenodd" clip-rule="evenodd" fill="#A8C06F" width="86.488" height="44.161"/>
				</g>
				<g>
					<rect x="235.8" y="90.297" fill-rule="evenodd" clip-rule="evenodd" fill="#A8C06F" width="86.488" height="51.87"/>
				</g>
				<path fill-rule="evenodd" clip-rule="evenodd" fill="#DBEAB5" d="M235.8,138.21c-0.061-0.945-0.09-1.903-0.09-2.87
					c0-24.539,19.401-44.434,43.334-44.434c23.934,0,43.334,19.895,43.334,44.434c0,0.967-0.03,1.925-0.09,2.87l0.09,3.61
					c0,0,0,0-86.937,0"/>
				<g>
					<rect x="235.8" y="84.368" fill-rule="evenodd" clip-rule="evenodd" fill="#A8C06F" width="86.488" height="6.189"/>
				</g>
				<g>
					<rect x="235.8" y="44.335" fill-rule="evenodd" clip-rule="evenodd" fill="#DBEAB5" width="86.488" height="39.994"/>
				</g>
				<path fill-rule="evenodd" clip-rule="evenodd" fill="#FFFFFF" d="M322.378,187.506c0,23.937-19.4,43.337-43.334,43.337
					c-23.933,0-43.334-19.4-43.334-43.337c0-0.938,0.029-1.873,0.09-2.798v2.63c0,0,0,0,86.49,0"/>
				<g>
					<polyline fill-rule="evenodd" clip-rule="evenodd" fill="#FFFFFF" points="254.378,84.364 254.378,63.21 300.859,63.21 
						300.859,84.364 					"/>
					<circle fill-rule="evenodd" clip-rule="evenodd" fill="#FFFFFF" cx="289.136" cy="56.685" r="6.305"/>
					<circle fill-rule="evenodd" clip-rule="evenodd" fill="#FFFFFF" cx="273.28" cy="56.685" r="2.697"/>
					<circle fill-rule="evenodd" clip-rule="evenodd" fill="#FFFFFF" cx="264.12" cy="55.939" r="1.952"/>
				</g>
				<g>
					<path fill="#FFFFFF" d="M303.363,107.72l-24.554,24.998c-23.34-23.174-24.324-24.436-24.324-24.436
						c6.473-6.049,15.079-9.739,24.525-9.739c9.47,0,18.092,3.704,24.566,9.776"/>
					<path fill="#FFFFFF" d="M275.685,134.367l-24.195-22.729c0,0-8.723,11.196-8.578,22.729H275.685z"/>
					<path fill="#FFFFFF" d="M282.44,134.367l24.196-22.729c0,0,8.722,11.196,8.578,22.729H282.44z"/>
					<path fill="#053927" d="M275.409,115.212c-0.527,0.699-0.693,1.538-0.479,2.428c0.224,0.928,1.048,1.765,1.918,1.944
						c0.196,0.042,0.387,0.046,0.572,0.021c-0.048,0.104-0.089,0.211-0.13,0.319c-0.099,0.295-0.227,0.592-0.355,0.893
						c-0.273,0.645-0.56,1.313-0.648,2.026c-0.097,0.776,0.326,1.54,1.138,2.044c0.748,0.462,1.868,0.694,2.681,0.157
						c1.153-0.758,1.65-2.562,1.153-3.987c-0.009-0.023-0.017-0.056-0.026-0.093c0.078,0.078,0.158,0.152,0.247,0.218
						c0.608,0.463,1.366,0.538,2.133,0.203c0.537-0.24,0.985-0.587,1.33-1.045c0.332-0.441,0.553-0.972,0.636-1.528
						c0.164-1.127-0.252-2.283-1.108-3.094c-1.258-1.187-3.22-1.938-5.382-2.065C277.931,113.584,276.288,114.046,275.409,115.212z"
						/>
					<path fill="#A8C06F" d="M283.698,116.533c0.603,0.568,0.882,1.341,0.771,2.117c-0.109,0.754-0.596,1.394-1.308,1.706
						c-0.389,0.169-0.727,0.146-1.006-0.065c-0.386-0.296-0.6-0.892-0.518-1.448l0.276-2.113l-1.313,1.738
						c-0.736,0.979-0.552,2.528-0.403,2.956c0.333,0.952,0.023,2.207-0.712,2.685c-0.328,0.218-0.962,0.143-1.466-0.175
						c-0.163-0.1-0.684-0.463-0.621-0.951c0.071-0.557,0.325-1.152,0.566-1.726c0.142-0.328,0.279-0.651,0.39-0.972
						c0.093-0.273,0.252-0.536,0.425-0.811c0.196-0.32,0.4-0.648,0.528-1.045l0.137-0.725l-0.76-0.011
						c-0.078-0.002-0.155-0.002-0.196,0.004l-0.813,0.068l-0.056,0.487c-0.154,0.206-0.321,0.278-0.545,0.233
						c-0.444-0.096-0.938-0.61-1.055-1.106c-0.135-0.564-0.039-1.063,0.282-1.493c0.606-0.801,1.824-1.167,2.718-1.115
						C280.925,114.881,282.628,115.525,283.698,116.533z"/>
					<path fill="#053927" d="M255.708,122.782c-0.929-0.718-2.153-0.977-3.26-0.684c-0.73,0.193-1.414,0.611-1.989,1.221
						c-0.841,0.895-1.417,2.516-0.894,3.882c0.263,0.692,0.677,1.548,1.553,2.024c0.543,0.299,1.117,0.45,1.703,0.45
						c0.207,0,0.415-0.019,0.621-0.058c0.079,0.01,0.159,0.021,0.263,0.021c0,0,0.004,0,0.006,0c0.938-0.021,1.817-0.411,2.477-1.1
						c0.692-0.722,1.073-1.722,1.052-2.742C257.209,124.614,256.653,123.516,255.708,122.782z"/>
					<path fill="#DBEAB5" d="M255.036,127.438c-0.365,0.381-0.846,0.597-1.346,0.607l-0.065,0.794l-0.128-0.821l-0.127-0.013
						l-0.128,0.029c-0.466,0.107-0.911,0.039-1.358-0.209c-0.336-0.181-0.579-0.525-0.831-1.191
						c-0.273-0.721,0.071-1.695,0.567-2.222c0.371-0.395,0.788-0.654,1.234-0.772c0.636-0.174,1.339-0.017,1.879,0.402
						c0.564,0.437,0.896,1.089,0.913,1.793C255.659,126.434,255.436,127.018,255.036,127.438z"/>
					<path fill="#053927" d="M303.264,123.595c-0.929-0.72-2.151-0.975-3.26-0.685c-0.729,0.195-1.414,0.613-1.986,1.221
						c-0.843,0.894-1.419,2.518-0.896,3.884c0.265,0.69,0.679,1.548,1.553,2.023c0.545,0.298,1.117,0.449,1.703,0.449
						c0.207,0,0.416-0.019,0.624-0.056c0.076,0.011,0.158,0.019,0.261,0.019c0,0,0.004,0,0.008,0
						c0.938-0.021,1.815-0.408,2.474-1.101c0.692-0.721,1.076-1.718,1.055-2.74C304.768,125.427,304.211,124.326,303.264,123.595z"
						/>
					<path fill="#DBEAB5" d="M302.594,128.251c-0.364,0.38-0.848,0.595-1.342,0.604l-0.068,0.796l-0.131-0.82l-0.125-0.013
						l-0.127,0.027c-0.469,0.109-0.913,0.04-1.358-0.208c-0.339-0.181-0.578-0.527-0.832-1.192
						c-0.275-0.718,0.072-1.694,0.565-2.222c0.373-0.393,0.789-0.655,1.236-0.772c0.637-0.172,1.337-0.017,1.878,0.4
						c0.563,0.44,0.896,1.093,0.912,1.797C303.218,127.248,302.994,127.831,302.594,128.251z"/>
					<path fill="#053927" d="M272.988,104.744c-0.929-0.718-2.151-0.974-3.26-0.681c-0.73,0.191-1.415,0.611-1.987,1.218
						c-0.841,0.896-1.419,2.518-0.896,3.884c0.266,0.692,0.68,1.547,1.553,2.024c0.545,0.3,1.117,0.448,1.704,0.448
						c0.206,0,0.416-0.017,0.624-0.056c0.076,0.011,0.156,0.021,0.26,0.021c0.002,0,0.005,0,0.005,0
						c0.941-0.021,1.818-0.41,2.478-1.101c0.693-0.723,1.076-1.72,1.054-2.74C274.492,106.578,273.936,105.478,272.988,104.744z"/>
					<path fill="#DBEAB5" d="M272.318,109.4c-0.364,0.383-0.848,0.596-1.344,0.606l-0.067,0.794l-0.128-0.819l-0.128-0.013
						l-0.126,0.027c-0.469,0.108-0.915,0.041-1.359-0.207c-0.338-0.182-0.578-0.526-0.831-1.192
						c-0.275-0.719,0.072-1.694,0.565-2.222c0.372-0.394,0.788-0.654,1.236-0.773c0.637-0.172,1.337-0.016,1.878,0.401
						c0.563,0.438,0.895,1.092,0.912,1.796C272.94,108.396,272.719,108.982,272.318,109.4z"/>
					<path fill="#053927" d="M291.541,104.744c-0.929-0.718-2.152-0.974-3.258-0.681c-0.729,0.191-1.417,0.611-1.989,1.218
						c-0.841,0.896-1.418,2.518-0.896,3.884c0.265,0.692,0.682,1.547,1.556,2.024c0.542,0.3,1.117,0.448,1.703,0.448
						c0.207,0,0.413-0.017,0.622-0.056c0.078,0.011,0.157,0.021,0.261,0.021c0.001,0,0.005,0,0.007,0
						c0.938-0.021,1.815-0.41,2.477-1.101c0.691-0.723,1.073-1.72,1.052-2.74C293.044,106.578,292.486,105.478,291.541,104.744z"/>
					<path fill="#DBEAB5" d="M290.87,109.4c-0.364,0.383-0.847,0.596-1.342,0.606l-0.068,0.794l-0.128-0.819l-0.128-0.013
						l-0.127,0.027c-0.469,0.108-0.913,0.041-1.358-0.207c-0.339-0.182-0.579-0.526-0.832-1.192
						c-0.275-0.719,0.073-1.694,0.565-2.222c0.374-0.394,0.79-0.654,1.236-0.773c0.637-0.172,1.337-0.016,1.879,0.401
						c0.563,0.438,0.897,1.092,0.911,1.796C291.494,108.396,291.271,108.982,290.87,109.4z"/>
					<path fill="#053927" d="M306.115,117.833c-0.509-0.396-1.179-0.535-1.787-0.376c-0.398,0.106-0.774,0.337-1.089,0.669
						c-0.46,0.489-0.776,1.379-0.49,2.127c0.146,0.38,0.373,0.847,0.85,1.108c0.3,0.164,0.613,0.247,0.937,0.247
						c0.113,0,0.228-0.011,0.34-0.031c0.041,0.005,0.087,0.011,0.144,0.011h0.004c0.514-0.011,0.995-0.227,1.354-0.604
						c0.38-0.396,0.591-0.941,0.576-1.5C306.938,118.836,306.633,118.233,306.115,117.833z"/>
					<path fill="#DBEAB5" d="M305.747,120.381c-0.198,0.208-0.465,0.328-0.735,0.332l-0.04,0.437l-0.067-0.448l-0.071-0.009
						l-0.069,0.017c-0.256,0.06-0.497,0.023-0.743-0.116c-0.185-0.098-0.318-0.288-0.457-0.652
						c-0.149-0.394,0.042-0.929,0.311-1.215c0.206-0.218,0.434-0.358,0.677-0.427c0.352-0.093,0.733-0.008,1.03,0.224
						c0.308,0.239,0.492,0.597,0.5,0.982C306.088,119.833,305.966,120.153,305.747,120.381z"/>
					<path fill="#053927" d="M262.609,126.266c-0.507-0.394-1.179-0.532-1.786-0.373c-0.399,0.104-0.773,0.337-1.089,0.669
						c-0.462,0.49-0.776,1.38-0.491,2.128c0.146,0.377,0.372,0.846,0.852,1.105c0.299,0.164,0.613,0.248,0.933,0.248
						c0.114,0,0.228-0.011,0.341-0.031c0.044,0.005,0.087,0.009,0.145,0.009h0.003c0.516-0.009,0.995-0.223,1.356-0.599
						c0.38-0.396,0.589-0.944,0.576-1.501C263.434,127.27,263.126,126.669,262.609,126.266z"/>
					<path fill="#DBEAB5" d="M262.241,128.818c-0.2,0.207-0.463,0.324-0.736,0.331l-0.037,0.435l-0.068-0.449l-0.069-0.007
						l-0.071,0.015c-0.256,0.061-0.499,0.023-0.743-0.113c-0.186-0.099-0.317-0.288-0.456-0.652
						c-0.15-0.395,0.039-0.929,0.309-1.217c0.206-0.216,0.434-0.359,0.679-0.423c0.349-0.096,0.731-0.01,1.03,0.219
						c0.308,0.24,0.491,0.597,0.498,0.985C262.583,128.267,262.461,128.587,262.241,128.818z"/>
					<path fill="#053927" d="M304.4,107.924l-0.223-0.242c-6.888-6.46-15.825-10.016-25.167-10.016
						c-9.32,0-18.24,3.541-25.124,9.976l-0.585,0.547l0.492,0.632c0.104,0.132,1.67,1.956,24.398,24.519l0.625,0.622l25.173-25.626
						L304.4,107.924z M278.804,131.473c-16.729-16.609-21.656-21.656-23.072-23.139c6.464-5.756,14.697-8.915,23.279-8.915
						c8.408,0,16.473,3.027,22.873,8.557L278.804,131.473z"/>
					<path fill="#053927" d="M250.798,111.101c-0.363,0.465-8.91,11.57-8.762,23.279l0.01,0.866h35.854l-26.512-24.905
						L250.798,111.101z M273.47,133.491h-29.675c0.245-9.084,5.971-17.914,7.818-20.532L273.47,133.491z"/>
					<path fill="#053927" d="M306.736,110.341l-26.512,24.905h35.855l0.011-0.866c0.148-11.709-8.401-22.814-8.762-23.279
						L306.736,110.341z M284.656,133.491l21.856-20.532c1.849,2.617,7.574,11.438,7.818,20.532H284.656z"/>
				</g>
				<path fill-rule="evenodd" clip-rule="evenodd" fill="#FFFFFF" d="M235.632,90.902c0-13.774-11.164-24.936-24.938-24.936
					c-13.771,0-24.936,11.161-24.936,24.936l-0.031-0.003c49.982,0,49.982,0,49.982,0"/>
				<g>
					<path fill-rule="evenodd" clip-rule="evenodd" fill="none" stroke="#000000" stroke-width="1.5" stroke-miterlimit="10" d="
						M238.337,154.465"/>
				</g>
				<path fill-rule="evenodd" clip-rule="evenodd" fill="#FFFFFF" d="M191.901,37.416c0.294,0.752-0.473,1.752-1.71,2.237
					c-1.238,0.48-2.479,0.263-2.773-0.486c-0.293-0.755,0.476-1.754,1.711-2.237C190.37,36.449,191.608,36.665,191.901,37.416z"/>
				<path fill-rule="evenodd" clip-rule="evenodd" fill="#FFFFFF" d="M199.002,133.657c-13.274-37.346-13.274-37.346-13.274-37.346"
					/>
				<path fill-rule="evenodd" clip-rule="evenodd" fill="#FFFFFF" d="M222.07,133.657c13.274-37.346,13.274-37.346,13.274-37.346"/>
				<path fill="#053927" d="M293.437,43.459H235.8h-40.522l-2.452-5.671c0.006-0.234-0.021-0.466-0.105-0.689
					c-0.102-0.262-0.276-0.476-0.48-0.662l-0.199-0.162c-0.421-0.297-0.966-0.479-1.617-0.479c-0.524,0-1.08,0.109-1.612,0.316
					c-1.713,0.669-2.686,2.148-2.207,3.372c0.094,0.249,0.258,0.453,0.449,0.64l1.054,3.335h-53.858v162.104h-0.007
					c0,0.096,0.007,0.186,0.007,0.278v26.537h25.461h1.755h161.702v-21.426c7.137-0.414,12.808-5.797,12.808-12.371
					c0-6.563-5.646-11.937-12.761-12.372c-0.012-0.496-0.017-0.99-0.047-1.486v-42.025h0.111l-0.111-4.385v-0.082
					c0.06-0.962,0.091-1.935,0.091-2.891c0-0.929-0.037-1.849-0.091-2.766V43.459h-0.878h-27.022
					c5.042-10.093,18.054-26.637,48.447-23.357l0.187-1.745C312.151,14.931,298.556,33.06,293.437,43.459z M321.409,90.022h-84.732
					v-4.817h84.732V90.022z M321.409,140.942h-84.732v-8.293c1.358-22.768,19.839-40.866,42.367-40.866
					c22.522,0,40.996,18.092,42.365,40.853V140.942z M312.906,158.427c1.745,2.07,3.55,4.213,4.295,7.08
					c2.176,8.359-4.64,18.516-6.401,20.954h-11.848c2.541-3.724,8.102-13.124,5.95-21.396c-0.849-3.253-2.781-5.547-4.654-7.769
					c-3.175-3.769-5.925-7.035-3.042-14.381h12.126C306.485,150.802,309.747,154.673,312.906,158.427z M321.409,190.245
					c-1.418,22.14-19.875,39.723-42.365,39.723c-22.5,0-40.963-17.597-42.367-39.747v-2.005h2.698l-0.164,0.209h16.253l0.168-0.209
					h11.792l-0.165,0.209h16.252l0.165-0.209h37.733V190.245z M197.86,68.521l-7.36-23.309h3.626l9.078,20.987
					C201.322,66.771,199.532,67.557,197.86,68.521z M195.103,72.624c0.031,2.972,1.797,5.524,4.331,6.71l0.008,0.026l0.18,0.062
					c0.913,0.396,1.921,0.617,2.979,0.617c2.563,0,4.823-1.287,6.176-3.252c0.188-0.235,0.296-0.396,0.313-0.427l0.252-0.393
					l-0.036-0.085c0.504-1.005,0.794-2.14,0.794-3.342c0-2.171-0.931-4.119-2.407-5.488c0.987-0.124,1.982-0.21,3.003-0.21
					c12.973,0,23.581,10.32,24.043,23.18h-48.085C186.901,83.063,190.14,76.862,195.103,72.624z M234.921,91.778v3.656h-48.582
					v-3.632l0.297,0.011v-0.035H234.921z M270.928,186.461c2.537-3.718,8.104-13.117,5.95-21.396
					c-0.854-3.277-2.811-5.54-4.705-7.728c-3.224-3.728-6.001-6.959-2.789-14.64h12.13c-3.177,8.218,0.136,12.067,3.356,15.788
					c1.76,2.035,3.584,4.141,4.334,7.021c2.178,8.384-4.67,18.557-6.406,20.954H270.928z M270.847,158.485
					c1.762,2.035,3.583,4.141,4.334,7.021c2.174,8.359-4.642,18.516-6.403,20.954h-11.872c2.539-3.724,8.102-13.124,5.95-21.396
					c-0.853-3.277-2.812-5.54-4.704-7.728c-3.226-3.728-6.01-6.957-2.799-14.64h12.144
					C264.323,150.909,267.628,154.765,270.847,158.485z M256.825,158.485c1.762,2.036,3.581,4.141,4.333,7.021
					c2.179,8.384-4.67,18.557-6.404,20.954h-11.876c2.539-3.718,8.107-13.117,5.953-21.396c-0.845-3.242-2.728-5.499-4.549-7.682
					c-3.133-3.753-5.829-7.021-2.649-14.686h11.84C250.3,150.909,253.604,154.766,256.825,158.485z M242.934,158.507
					c1.7,2.035,3.455,4.14,4.2,7c2.173,8.359-4.642,18.516-6.404,20.954h-4.053v-1.753v-42.011h3.06
					C236.594,150.888,239.809,154.762,242.934,158.507z M234.921,222.996h-48.582v-6.094h48.582V222.996z M136.003,97.19h48.58
					v6.177c-3.29-1.06-8.416-2.325-14.823,1.755c-7.545,4.802-12.563,2.546-17.414,0.361c-2.152-0.967-4.182-1.884-6.362-2.161
					c-4.833-0.616-8.204,1.162-9.98,2.479V97.19z M160.146,87.755c4.423,0,8.074,3.372,8.517,7.68h-17.031
					C152.071,91.127,155.722,87.755,160.146,87.755z M234.853,186.878l-0.104-0.078c-6.733,8.659-14.228,4.749-18.256,2.647
					l-0.637-0.331c-2.123-1.083-4.183-2.127-6.763-2.086v-44.333h25.827v42.025C234.876,185.433,234.862,186.157,234.853,186.878z
					 M184.573,205.8c-2.809,0.145-5.495,0.713-8.005,1.648c3.755-3.173,6.584-7.409,8.015-12.244v10.358
					C184.583,205.646,184.573,205.722,184.573,205.8z M160.872,211.681c-0.004-0.473-0.015-0.942-0.046-1.41
					c0.831-12.172,10.787-21.852,23.056-22.305l0,0C183.882,200.813,173.624,211.284,160.872,211.681z M136.003,108.103
					c0.646-0.668,4.004-3.782,9.758-3.041c1.92,0.247,3.835,1.107,5.864,2.023c2.837,1.275,5.891,2.65,9.512,2.65
					c2.796,0,5.932-0.819,9.564-3.133c6.056-3.856,10.712-2.438,13.882-1.387v7.975c-3.29-1.062-8.416-2.324-14.823,1.753
					c-7.545,4.801-12.563,2.547-17.414,0.361c-2.152-0.966-4.182-1.881-6.362-2.162c-4.833-0.615-8.204,1.162-9.98,2.479V108.103z
					 M218.048,119.384l-1.461,3.639h-9.948l-1.184-7.959l1.396-3.637l9.877,3.794l-1.383,2.789L218.048,119.384z M203.728,133.146
					v-8.368h12.575v8.368H203.728z M199.751,133.146l-1.438-4.045l3.659-1.06v5.104H199.751z M203.821,116.018l1.043,7.005h-2.892
					v3.191l-4.247,1.231l-3.416-9.61L203.821,116.018z M197.889,133.146h-11.55v-32.493L197.889,133.146z M136.003,117.923
					c0.646-0.666,4.004-3.783,9.758-3.039c1.92,0.245,3.835,1.107,5.864,2.021c2.837,1.278,5.891,2.651,9.512,2.651
					c2.796,0,5.932-0.817,9.564-3.132c6.056-3.858,10.712-2.438,13.882-1.389v7.974c-3.29-1.06-8.416-2.324-14.823,1.755
					c-7.545,4.802-12.563,2.547-17.414,0.362c-2.152-0.967-4.182-1.884-6.362-2.162c-4.833-0.615-8.204,1.162-9.98,2.479V117.923z
					 M136.003,127.745c0.646-0.669,4.004-3.783,9.758-3.039c1.92,0.245,3.835,1.105,5.864,2.021
					c2.837,1.275,5.891,2.651,9.512,2.651c2.796,0,5.932-0.819,9.564-3.134c6.056-3.856,10.712-2.438,13.882-1.387v8.06
					c-3.259-1.072-8.46-2.521-15.011,1.671c-7.505,4.799-12.491,2.544-17.316,0.361c-2.139-0.969-4.16-1.884-6.329-2.164
					c-4.799-0.617-8.156,1.156-9.924,2.474V127.745z M145.702,134.526c1.908,0.247,3.814,1.107,5.832,2.021
					c2.825,1.278,5.863,2.651,9.467,2.651c2.779,0,5.897-0.817,9.515-3.132c6.156-3.938,10.856-2.373,14.012-1.32l0.056-0.191v6.387
					h-48.58v-3.374C136.631,136.923,140.015,133.789,145.702,134.526z M184.583,180.731c-2.487-8.391-9.182-14.988-17.629-17.335
					c7.942-2.049,14.505-7.684,17.629-15.14V180.731z M186.339,142.697h21v44.528c-1.838,0.364-3.942,1.276-6.489,3.047
					c-5.568,3.874-12.997-2.034-14.511-3.331V142.697z M234.921,138.194v2.748h-48.582v-6.04h48.504
					c-0.002,0.147-0.011,0.292-0.011,0.438C234.832,136.296,234.863,137.255,234.921,138.194z M218.059,133.146v-9.077l1.56-3.887
					l5.346,2.716l-3.646,10.248H218.059z M225.557,121.231l-7.868-3.999l4.803-9.694l6.904,2.892L225.557,121.231z M229.984,108.775
					l-8.335-3.491l-4.139,8.357l-11.669-4.482l-1.941,5.058l-10.188,1.945L186.97,97.19h47.13L229.984,108.775z M184.583,95.435
					h-14.168c-0.094-1.103-0.354-2.159-0.771-3.139l14.938-6.48V95.435z M184.401,142.697c-2.039,11.227-11.969,19.589-23.651,19.78
					c-0.206-0.007-0.41-0.018-0.62-0.018c-0.114,0-0.23,0.01-0.343,0.011c-11.615-0.264-21.472-8.599-23.501-19.773H184.401z
					 M160.344,164.252c0.082,0,0.161-0.011,0.244-0.013c12.293,0.234,22.311,9.846,23.205,21.97
					c-11.389,0.432-20.915,8.267-23.846,18.838c-2.899-10.456-12.255-18.241-23.48-18.821c0.893-12.198,11.018-21.865,23.408-21.997
					C160.033,164.232,160.188,164.252,160.344,164.252z M159.069,210.271c-0.03,0.461-0.041,0.926-0.045,1.393
					c-12.577-0.585-22.635-10.964-22.646-23.681C148.481,188.613,158.246,198.222,159.069,210.271z M160.13,213.474
					c3.063,0,6.002-0.542,8.725-1.538c-3.955,3.304-6.912,7.719-8.325,12.761c-1.349-4.814-4.097-9.064-7.783-12.316
					C155.086,213.088,157.563,213.474,160.13,213.474z M161.409,229.85c0.837-11.995,10.755-21.575,23.077-22.281
					c-0.966,12.492-10.84,22.403-23.054,22.994C161.423,230.325,161.423,230.085,161.409,229.85z M234.921,215.149h-48.582v-25.946
					c2.962,2.263,9.801,6.487,15.514,2.51c2.169-1.51,3.938-2.327,5.486-2.692v12.354h-9.824v1.758h21.402v-1.758h-9.823v-12.579
					c2.185-0.037,3.965,0.862,5.962,1.884l0.627,0.324c2.197,1.146,5.646,2.947,9.537,2.947c3.076,0,6.433-1.133,9.66-4.6
					c0.011,0.282,0.024,0.561,0.041,0.839V215.149z M234.887,133.146h-11.703l11.737-33.024v32.468
					C234.911,132.776,234.895,132.96,234.887,133.146z M184.583,83.904l-15.77,6.839c-0.759-1.177-1.745-2.197-2.906-2.982
					l18.676-40.293V83.904z M164.364,86.911c-1.034-0.468-2.159-0.768-3.342-0.868v-40.83h22.674L164.364,86.911z M159.268,86.043
					c-1.049,0.091-2.05,0.335-2.987,0.714l-19.257-41.544h22.244V86.043z M154.717,87.56c-1.265,0.787-2.351,1.833-3.171,3.071
					l-15.543-6.742V47.187L154.717,87.56z M150.702,92.179c-0.444,1.012-0.729,2.107-0.826,3.256h-13.873v-9.632L150.702,92.179z
					 M153.5,163.343c-8.194,2.207-14.763,8.404-17.497,16.372v-31.722C139.053,155.503,145.57,161.219,153.5,163.343z
					 M143.164,206.992c-2.267-0.714-4.669-1.13-7.157-1.21c0-0.025-0.004-0.052-0.004-0.079v-9.481
					C137.438,200.408,139.931,204.105,143.164,206.992z M159.652,229.85c-0.017,0.244-0.016,0.492-0.025,0.737
					c-12.444-0.349-22.564-10.377-23.533-23.039C148.637,208.026,158.801,217.696,159.652,229.85z M184.583,215.219v15.403h-15.037
					C176.43,227.917,181.924,222.29,184.583,215.219z M186.339,224.752h48.582v5.87h-48.582V224.752z M236.677,200.122
					c4.528,15.189,17.018,26.973,32.607,30.5h-32.607V200.122z M298.906,158.427c1.746,2.07,3.551,4.213,4.296,7.08
					c2.175,8.359-4.643,18.516-6.401,20.954h-11.852c2.542-3.724,8.104-13.124,5.952-21.396c-0.854-3.277-2.811-5.54-4.704-7.728
					c-3.222-3.721-5.997-6.966-2.789-14.64h12.018C292.446,150.723,295.721,154.642,298.906,158.427z M236.677,122.41V91.778h30.234
					C252.436,96.021,240.974,107.646,236.677,122.41z M255.256,67.338c0.283-0.062,0.578-0.093,0.877-0.093
					c2.335,0,4.234,1.897,4.234,4.232c0,2.336-1.899,4.236-4.234,4.236c-0.299,0-0.59-0.042-0.877-0.104V67.338z M255.256,77.39
					c0.29,0.044,0.58,0.079,0.877,0.079c3.304,0,5.99-2.687,5.99-5.991c0-3.301-2.687-5.987-5.99-5.987
					c-0.299,0-0.587,0.042-0.877,0.086v-1.489h28.411v7.077c-1.021-0.362-2.105-0.563-3.198-0.563c-5.246,0-9.515,4.267-9.515,9.511
					c0,1.147,0.222,2.275,0.617,3.338h-16.315V77.39z M273.48,83.449c-0.496-1.038-0.771-2.177-0.771-3.338
					c0-4.276,3.48-7.755,7.76-7.755c1.106,0,2.197,0.247,3.198,0.704v10.389H273.48z M299.983,83.449h-14.562V64.087h14.562V83.449z
					 M289.137,62.113c-2.991,0-5.429-2.438-5.429-5.429c0-2.995,2.438-5.428,5.429-5.428c2.993,0,5.429,2.433,5.429,5.428
					C294.565,59.676,292.13,62.113,289.137,62.113z M289.137,49.501c-3.96,0-7.185,3.222-7.185,7.184
					c0,2.291,1.086,4.332,2.762,5.647h-31.213v21.117h-16.824V45.213h55.94c-0.921,2.084-1.456,3.695-1.701,4.522
					C290.344,49.588,289.751,49.501,289.137,49.501z M234.921,45.213v36.774c-3.636-9.854-13.126-16.897-24.227-16.897
					c-1.985,0-3.916,0.232-5.773,0.658l-8.885-20.535H234.921z M189.098,40.767c0.465-0.022,0.945-0.116,1.413-0.295
					c0.48-0.19,0.895-0.446,1.245-0.738l1.61,3.726h-3.42L189.098,40.767z M196.319,69.474c-4.58,3.08-8.118,7.595-9.98,12.892
					V45.213h2.319L196.319,69.474z M136.003,215.237c2.664,7.063,8.153,12.682,15.031,15.385h-15.031V215.237z M288.803,230.622
					c15.589-3.527,28.077-15.308,32.606-30.496v30.496H288.803z M334.221,198.581c0,5.611-4.887,10.213-11.055,10.616v-18.993
					c0.046-0.741,0.071-1.486,0.078-2.238C329.377,188.403,334.221,192.99,334.221,198.581z M321.409,186.461h-8.457
					c2.539-3.724,8.101-13.124,5.946-21.396c-0.843-3.253-2.779-5.547-4.649-7.769c-3.205-3.804-5.967-7.105-2.947-14.599h10.107
					V186.461z M291.175,91.778h30.234v30.631C317.111,107.642,305.651,96.021,291.175,91.778z M321.409,45.213v38.236h-19.673
					V62.332h-8.175c1.676-1.315,2.759-3.356,2.759-5.647c0-2.727-1.527-5.101-3.77-6.32c0.22-0.808,0.791-2.686,1.893-5.151H321.409
					z"/>
				<path fill="#053927" d="M273.281,53.111c-1.971,0-3.573,1.604-3.573,3.573c0,1.973,1.603,3.574,3.573,3.574
					c1.972,0,3.573-1.602,3.573-3.574C276.854,54.715,275.253,53.111,273.281,53.111z M273.281,58.503
					c-1.003,0-1.821-0.814-1.821-1.818c0-1.002,0.818-1.817,1.821-1.817c1.004,0,1.82,0.815,1.82,1.817
					C275.102,57.688,274.285,58.503,273.281,58.503z"/>
				<path fill="#053927" d="M264.12,53.111c-1.56,0-2.828,1.271-2.828,2.828c0,1.56,1.269,2.828,2.828,2.828
					c1.559,0,2.828-1.269,2.828-2.828C266.948,54.382,265.679,53.111,264.12,53.111z M264.12,57.013
					c-0.592,0-1.075-0.482-1.075-1.073c0-0.592,0.483-1.072,1.075-1.072c0.593,0,1.073,0.48,1.073,1.072
					C265.193,56.53,264.713,57.013,264.12,57.013z"/>
				<path fill="#053927" d="M159.889,195.871l0.661-0.58c3.933-3.459,6.288-8.281,6.633-13.579
					c0.346-5.301-1.366-10.385-4.823-14.31l-1.029-1.201l-0.669,0.586c-3.968,3.494-6.34,8.324-6.674,13.597
					c-0.339,5.276,1.4,10.365,4.891,14.334L159.889,195.871z M155.738,180.497c0.287-4.512,2.208-8.663,5.432-11.788
					c3.061,3.555,4.574,8.122,4.262,12.889c-0.295,4.53-2.201,8.682-5.395,11.779C156.961,189.788,155.433,185.224,155.738,180.497z
					"/>
				<path fill="#053927" d="M194.174,36.85"/>
				<path fill="#A8C06F" d="M184.583,95.435h-14.168c-0.094-1.103-0.354-2.159-0.771-3.139l14.938-6.48V95.435z"/>
				<path fill="#DBEAB5" d="M184.583,83.904l-15.77,6.839c-0.759-1.177-1.745-2.197-2.906-2.982l18.676-40.293V83.904z"/>
				<path fill="#A8C06F" d="M164.364,86.911c-1.034-0.468-2.159-0.768-3.342-0.868v-40.83h22.674L164.364,86.911z"/>
				<path fill="#DBEAB5" d="M159.268,86.043c-1.049,0.091-2.05,0.335-2.987,0.714l-19.257-41.544h22.244V86.043z"/>
				<path fill="#A8C06F" d="M154.717,87.56c-1.265,0.787-2.351,1.833-3.171,3.071l-15.543-6.742V47.187L154.717,87.56z"/>
				<path fill="#DBEAB5" d="M150.702,92.179c-0.444,1.012-0.729,2.107-0.826,3.256h-13.873v-9.632L150.702,92.179z"/>
				<path fill="#A8C06F" d="M136.003,108.103c0.646-0.668,4.004-3.782,9.758-3.041c1.92,0.247,3.835,1.107,5.864,2.023
					c2.837,1.275,5.891,2.65,9.512,2.65c2.796,0,5.932-0.819,9.564-3.133c6.056-3.856,10.712-2.438,13.882-1.387v7.975
					c-3.29-1.062-8.416-2.324-14.823,1.753c-7.545,4.801-12.563,2.547-17.414,0.361c-2.152-0.966-4.182-1.881-6.362-2.162
					c-4.833-0.615-8.204,1.162-9.98,2.479V108.103z"/>
				<path fill="#A8C06F" d="M136.003,127.745c0.646-0.669,4.004-3.783,9.758-3.039c1.92,0.245,3.835,1.105,5.864,2.021
					c2.837,1.275,5.891,2.651,9.512,2.651c2.796,0,5.932-0.819,9.564-3.134c6.056-3.856,10.712-2.438,13.882-1.387v8.06
					c-3.259-1.072-8.46-2.521-15.011,1.671c-7.505,4.799-12.491,2.544-17.316,0.361c-2.139-0.969-4.16-1.884-6.329-2.164
					c-4.799-0.617-8.156,1.156-9.924,2.474V127.745z"/>
				<polygon fill="#DBEAB5" points="197.889,133.146 186.339,133.146 186.339,100.653 				"/>
				<path fill="#DBEAB5" d="M184.401,142.697c-2.039,11.227-11.969,19.589-23.651,19.78c-0.206-0.007-0.41-0.018-0.62-0.018
					c-0.114,0-0.23,0.01-0.343,0.011c-11.615-0.264-21.472-8.599-23.501-19.773H184.401z"/>
				<path fill="#DBEAB5" d="M234.887,133.146h-11.703l11.737-33.024v32.468C234.911,132.776,234.895,132.96,234.887,133.146z"/>
				<path fill="#FFFFFF" d="M155.738,180.497c0.287-4.512,2.208-8.663,5.432-11.788c3.061,3.555,4.574,8.122,4.262,12.889
					c-0.295,4.53-2.201,8.682-5.395,11.779C156.961,189.788,155.433,185.224,155.738,180.497z"/>
				<path fill="#DBEAB5" d="M255.256,67.338c0.283-0.062,0.578-0.093,0.877-0.093c2.335,0,4.234,1.897,4.234,4.232
					c0,2.336-1.899,4.236-4.234,4.236c-0.299,0-0.59-0.042-0.877-0.104V67.338z"/>
				<path fill="#DBEAB5" d="M273.48,83.449c-0.496-1.038-0.771-2.177-0.771-3.338c0-4.276,3.48-7.755,7.76-7.755
					c1.106,0,2.197,0.247,3.198,0.704v10.389H273.48z"/>
			</g>
			<g>
				<path fill="none" stroke="#053927" stroke-width="4" stroke-miterlimit="10" d="M323.166,227.378c0,2.75-2.25,5-5,5H139.248
					c-2.75,0-5-2.25-5-5V48.459c0-2.75,2.25-5,5-5h178.918c2.75,0,5,2.25,5,5V227.378z"/>
			</g>
			<path fill-rule="evenodd" clip-rule="evenodd" fill="#FFFFFF" d="M191.328,37.57l-0.021,0.008
				c-0.387-0.69-0.993-0.853-2.076-0.432c-1.069,0.417-1.434,1.09-1.273,1.884l-0.033,0.014l12.32,38.045
				c5.012,1.815,6.95-2.403,6.95-2.403L191.328,37.57z"/>
		</g>
	</g>
	<g>
		<path fill="#053927" d="M135.863,254.583l-0.081-0.142c-0.472-0.581-1.113-1.137-1.91-1.653c-0.882-0.563-1.784-0.719-2.729-0.445
			c-0.598,0.237-1.119,0.575-1.548,1.002c-0.388,0.384-0.76,0.813-1.088,1.253c-0.551,0.655-1.096,1.339-1.638,2.047
			c-0.548,0.709-1.091,1.448-1.647,2.214c-1.747,2.521-3.416,5.017-4.96,7.414c-1.575,2.438-3.169,4.901-4.801,7.403l-11.715,18.706
			c-3.582,6.087-7.031,12.163-10.246,18.049c-0.757,1.302-1.52,2.633-2.276,3.99c-0.547,0.979-1.07,1.979-1.563,2.986
			c-0.11-0.312-0.261-0.657-0.451-1.038c-1.284-3.707-2.482-7.06-3.663-10.251c-1.153-3.099-2.351-6.394-3.651-10.05l-3.085-10.236
			c-0.22-0.756-0.436-1.492-0.651-2.208c-0.199-0.638-0.411-1.399-0.638-2.286l-0.201-1.22c-0.04-0.089-0.067-0.186-0.075-0.288
			c-0.017-0.199-0.042-0.401-0.077-0.604l-0.086-0.083c-0.001-0.003-0.036-0.078-0.036-0.329c0-0.025,0.012-0.06,0.014-0.086
			c-0.304-1.207-0.955-2.353-2.019-3.012c-0.666-0.413-1.412-0.623-2.143-0.241c-0.654,0.342-1.153,0.911-1.581,1.506
			c-0.005,0.026-0.018,0.05-0.022,0.075c0.005,0.031,0.007,0.06,0.013,0.092l-2.057,5.712l-8.455,21.297
			c-1.63,4.123-3.229,8.212-4.796,12.278c-1.548,3.988-3.056,8.124-4.48,12.288c-1.303,3.703-2.536,7.457-3.666,11.156
			c-1.148,3.789-2.108,7.606-2.856,11.367c-0.223,1.446-0.416,2.847-0.576,4.164c-0.164,1.402-0.247,2.816-0.247,4.205
			c0,0.585,0.305,1.149,0.904,1.677c0.541,0.478,1.093,0.825,1.687,1.063c0.621,0.251,1.227,0.345,1.787,0.275
			c0.748-0.084,1.177-0.59,1.177-1.39c0-1.488,0.107-2.911,0.319-4.231c0.215-1.353,0.432-2.735,0.65-4.138
			c0.321-1.819,0.701-3.582,1.13-5.241c0.424-1.656,0.914-3.372,1.459-5.107c1.2-4.143,2.511-8.208,3.895-12.084
			c1.401-3.939,2.876-7.956,4.383-11.939c1.517-4.005,3.033-7.967,4.551-11.862c1.525-3.924,3.11-7.859,4.711-11.701l3.032-7.435
			c0.637,2.184,1.351,4.397,2.13,6.602c0.909,2.565,1.866,5.193,2.847,7.813c1.194,3.147,2.36,6.257,3.494,9.348
			c1.132,3.059,2.195,6.194,3.175,9.359c0.212,0.529,0.399,1.062,0.556,1.579c0.104,0.351,0.178,0.684,0.258,1.02
			c0.017,0.034,0.041,0.058,0.054,0.097c0.304,0.94,0.902,1.792,1.838,2.187c0.865,0.365,1.897,0.274,2.748-0.09
			c1.496-0.644,2.359-2.151,3.26-3.529l0.49-1.056c1.367-2.638,2.788-5.316,4.222-7.961c1.442-2.662,2.918-5.282,4.384-7.788
			c1.993-3.397,3.831-6.479,5.617-9.421l0.453-0.748c1.758-2.895,3.514-5.786,5.256-8.671c1.87-2.929,3.701-5.829,5.491-8.705
			c1.752-2.816,3.637-5.738,5.603-8.689l2.126-3.272c-0.286,0.801-0.559,1.581-0.821,2.352c-0.58,1.682-1.155,3.436-1.703,5.195
			c-1.704,4.775-3.32,9.734-4.804,14.739c-1.463,4.922-2.807,9.992-3.995,15.064c-0.764,3.178-1.429,6.388-1.975,9.538l-0.494,2.818
			c-0.394,2.245-0.783,4.475-1.183,6.711c-0.314,2.312-0.616,4.762-0.924,7.492c-0.284,2.552-0.537,5.071-0.75,7.492
			c-0.331,3.834-0.643,7.747-0.926,11.631c-0.25,3.443-0.496,7.193-0.754,11.47c-0.105,2.122-0.188,4.343-0.244,6.601
			c-0.054,2.228,0.028,4.462,0.243,6.593c0,1.845,0.087,3.692,0.258,5.49c0.168,1.813,0.541,3.628,1.104,5.386
			c0.464,1.55,1.075,2.932,1.82,4.107c0.761,1.185,1.784,2.242,3.059,3.154c0.396,0.262,0.938,0.446,1.661,0.564
			c0.134,0.022,0.263,0.033,0.385,0.033c0.688,0,1.197-0.339,1.444-0.957c0.381-0.776,0.132-1.338-0.145-1.674
			c-0.301-0.363-0.604-0.695-0.929-1.017l-0.146-0.145l-0.029-0.322h-0.326v-0.196l-0.364-0.361
			c-0.035-0.118-0.098-0.231-0.186-0.338c-0.211-0.64-0.381-1.234-0.522-1.82c-0.157-0.617-0.344-1.21-0.555-1.763
			c-0.007-0.224-0.04-0.45-0.098-0.675c-0.043-0.165-0.063-0.337-0.063-0.525c0-0.289-0.075-0.502-0.166-0.654l-0.327-2.971
			c-0.115-1.153-0.194-2.155-0.24-3.068c-0.053-0.875-0.079-1.823-0.079-2.912c-0.11-4.384-0.028-8.771,0.242-13.042
			c0.256-4.071,0.548-8.296,0.893-12.907c0.432-4.555,0.837-9.078,1.22-13.579c0.37-4.422,0.942-8.977,1.701-13.538
			c1.94-11.633,4.724-23.04,8.275-33.91c1.169-3.726,2.423-7.466,3.728-11.115c1.279-3.558,2.54-7.312,3.759-11.195
			c0.217-0.961,0.488-1.959,0.805-2.968c0.33-1.046,0.555-2.146,0.672-3.319C136.379,256.319,136.21,255.519,135.863,254.583z"/>
		<g>
			<path fill="#053927" d="M277.956,319.62c1.41,0,2.493,0.543,3.253,1.627c0.213,0.438,0.242,0.813,0.08,1.143
				c-0.163,0.319-0.515,0.484-1.059,0.484c-0.217,0-0.354,0.031-0.404,0.08c-0.057,0.056-0.194,0.083-0.408,0.083h-0.49
				c-2.385,0.433-4.714,0.977-6.985,1.626c-2.276,0.651-4.555,1.356-6.831,2.115c-3.467,1.19-6.882,2.38-10.241,3.574
				c-3.359,1.195-6.721,2.493-10.076,3.904c-0.871,0.433-1.737,0.811-2.605,1.137c-0.868,0.321-1.732,0.706-2.603,1.135
				c-0.971,0.331-1.896,0.708-2.761,1.141c-0.436,0.108-0.869,0.325-1.301,0.648c-0.108,0-0.192,0.029-0.245,0.084
				c-0.055,0.056-0.191,0.079-0.403,0.079c0.319,2.71,0.104,5.31-0.651,7.807c-0.976,3.574-2.819,6.689-5.529,9.346
				c-2.711,2.656-5.744,4.633-9.103,5.935c-1.519,0.544-3.011,0.923-4.475,1.137c-1.461,0.216-2.95,0.112-4.465-0.325
				c-1.195-0.433-2.307-1.056-3.333-1.87c-1.03-0.811-1.818-1.813-2.358-3.006c-0.324-0.977-0.38-1.924-0.163-2.847
				c0.219-0.919,0.595-1.787,1.137-2.602c0.544-0.812,1.165-1.594,1.871-2.356c0.705-0.757,1.378-1.409,2.03-1.953
				c2.385-1.949,4.933-3.708,7.643-5.283c2.707-1.568,5.472-3.059,8.291-4.468l4.391-1.951l-0.49-2.44
				c-0.432-1.189-0.921-2.328-1.461-3.414c-0.547-1.079-1.195-2.22-1.952-3.41c-0.544-0.87-1.033-1.79-1.464-2.765
				c-0.434-0.977-0.594-2.058-0.489-3.251c0.108-1.953,0.791-3.715,2.033-5.286c1.244-1.566,2.63-2.951,4.146-4.144
				c1.842-1.301,3.523-2.225,5.04-2.767c0.539-0.215,1.166-0.433,1.869-0.647c0.704-0.216,1.436-0.328,2.192-0.328
				c0.87,0.112,1.79,0.408,2.769,0.896c0.976,0.484,1.568,1.276,1.787,2.357c0.217,0.653,0.137,1.246-0.248,1.787
				c-0.377,0.545-0.783,1.033-1.215,1.462c-1.194,1.196-2.52,2.253-3.985,3.172c-1.463,0.926-2.952,1.814-4.469,2.684
				c-0.866,0.545-1.762,1.031-2.684,1.461c-0.92,0.438-1.816,0.871-2.682,1.3v0.489v0.327v0.162c0.217,0.65,0.38,1.085,0.485,1.301
				v0.162l0.163,0.164c0,0.216,0.109,0.431,0.325,0.649c0.761,1.193,1.465,2.386,2.112,3.576c0.649,1.194,1.25,2.439,1.79,3.738
				c0.108,0.217,0.164,0.38,0.164,0.488s0.052,0.274,0.16,0.49c4.011-1.844,8.346-3.631,13.005-5.367
				c3.146-1.191,6.344-2.357,9.593-3.495c3.253-1.139,6.503-2.196,9.754-3.17c1.195-0.436,2.359-0.784,3.496-1.06
				c1.14-0.265,2.3-0.565,3.494-0.891c0.76-0.216,1.517-0.379,2.276-0.486C276.436,319.681,277.198,319.62,277.956,319.62z
				 M226.747,350.349c0.54-0.758,1.027-1.568,1.463-2.439c0.429-0.869,0.811-1.73,1.135-2.602c0.544-1.301,0.919-2.868,1.14-4.714
				c-0.977,0.546-1.926,1.031-2.843,1.464c-0.927,0.436-1.871,0.923-2.848,1.463c-1.407,0.761-2.764,1.543-4.063,2.357
				c-1.302,0.813-2.606,1.653-3.901,2.521c-0.54,0.43-1.084,0.839-1.627,1.218c-0.54,0.384-1.082,0.788-1.623,1.218
				c-0.216,0.221-0.437,0.408-0.655,0.571c-0.216,0.161-0.43,0.354-0.646,0.568c-0.11,0.109-0.192,0.22-0.247,0.325
				c-0.054,0.108-0.134,0.217-0.243,0.325l-0.328,0.323c-0.324,0.328-0.618,0.68-0.89,1.058c-0.274,0.382-0.517,0.79-0.733,1.221
				l-0.488,0.976v0.324v0.488v0.488v0.162c0,0.22,0.06,0.382,0.164,0.49c0,0.104,0.032,0.188,0.084,0.238
				c0.051,0.059,0.073,0.143,0.073,0.244c0.114,0,0.167,0.059,0.167,0.162l0.165,0.165h0.163v0.161h0.158v0.164v-0.164v0.164h0.164
				h-0.164v-0.164l0.33,0.164h0.321h0.485h0.818h0.485h0.16l1.952-0.49c0.542-0.104,1.247-0.379,2.113-0.811
				c0.11,0,0.19-0.026,0.248-0.08c0.054-0.053,0.135-0.082,0.242-0.082h0.163c0.105,0,0.16-0.024,0.16-0.08
				c0-0.053,0.06-0.082,0.163-0.082l0.978-0.489c0.755-0.54,1.487-1.053,2.198-1.543c0.703-0.49,1.432-1.001,2.192-1.543
				C224.413,353.111,225.556,351.866,226.747,350.349z M210.323,359.126c-0.101,0-0.158-0.05-0.158-0.161
				C210.165,359.076,210.223,359.126,210.323,359.126l0.33,0.164c-0.11,0-0.166-0.025-0.166-0.082
				C210.487,359.155,210.433,359.126,210.323,359.126z M236.008,313.283c-1.083,0.648-2.164,1.408-3.25,2.272
				c0.438-0.213,0.817-0.428,1.142-0.646c0.325-0.218,0.704-0.437,1.137-0.653c0.43-0.324,0.863-0.648,1.3-0.973
				c0.433-0.324,0.866-0.652,1.305-0.978C237.202,312.418,236.662,312.742,236.008,313.283z"/>
			<path fill="#053927" d="M213.645,363.313c-1.038,0-2.086-0.151-3.13-0.453c-1.273-0.46-2.442-1.115-3.505-1.959
				c-1.091-0.857-1.934-1.932-2.503-3.191c-0.372-1.111-0.432-2.16-0.194-3.167c0.233-0.982,0.64-1.912,1.207-2.765
				c0.556-0.829,1.201-1.643,1.92-2.419c0.747-0.801,1.426-1.454,2.077-1.997c2.388-1.951,4.98-3.744,7.712-5.332
				c2.71-1.569,5.508-3.078,8.318-4.482l4.045-1.798l-0.411-2.048c-0.397-1.08-0.882-2.211-1.418-3.29
				c-0.555-1.093-1.203-2.227-1.927-3.364c-0.563-0.9-1.066-1.852-1.499-2.831c-0.464-1.044-0.643-2.221-0.53-3.497
				c0.112-2.025,0.832-3.899,2.139-5.553c1.266-1.592,2.688-3.014,4.23-4.226c1.894-1.339,3.63-2.291,5.181-2.845
				c0.54-0.216,1.183-0.438,1.891-0.655c0.758-0.231,1.545-0.35,2.339-0.35c0.988,0.123,1.974,0.441,2.991,0.948
				c1.111,0.552,1.803,1.462,2.055,2.705c0.253,0.753,0.147,1.504-0.331,2.177c-0.388,0.561-0.816,1.076-1.27,1.526
				c-1.218,1.22-2.588,2.311-4.072,3.241c-1.385,0.876-2.854,1.758-4.485,2.693c-0.855,0.539-1.777,1.04-2.722,1.48
				c-0.815,0.389-1.616,0.774-2.393,1.157v0.587c0.241,0.719,0.369,1.028,0.435,1.162l0.068,0.193l0.146,0.146v0.206
				c0,0.074,0.064,0.18,0.181,0.298l0.066,0.083c0.762,1.195,1.479,2.408,2.13,3.605c0.673,1.238,1.282,2.512,1.813,3.785
				c0.09,0.179,0.149,0.335,0.18,0.476c3.84-1.748,8.046-3.476,12.513-5.141c3.172-1.2,6.403-2.378,9.603-3.498
				c3.271-1.146,6.561-2.215,9.775-3.177c1.145-0.419,2.339-0.78,3.521-1.067c1.033-0.239,2.138-0.521,3.48-0.887
				c0.782-0.222,1.57-0.391,2.338-0.499c0.81-0.114,1.6-0.173,2.349-0.173c1.574,0,2.807,0.619,3.662,1.84
				c0.323,0.649,0.35,1.182,0.12,1.65c-0.181,0.352-0.584,0.764-1.508,0.764c-0.068,0-0.113,0.004-0.14,0.008
				c-0.198,0.136-0.459,0.155-0.673,0.155h-0.49c-2.251,0.417-4.585,0.96-6.848,1.606c-2.269,0.649-4.56,1.358-6.811,2.109
				c-3.461,1.188-6.874,2.377-10.231,3.57c-3.407,1.213-6.788,2.522-10.051,3.895c-0.853,0.425-1.744,0.813-2.623,1.144
				c-0.796,0.295-1.631,0.659-2.558,1.115c-1.042,0.36-1.949,0.735-2.758,1.14l-0.103,0.038c-0.367,0.091-0.745,0.281-1.122,0.563
				l-0.134,0.1h-0.131c-0.043,0.031-0.089,0.057-0.137,0.077c0.248,2.602,0.007,5.135-0.72,7.537
				c-0.99,3.631-2.896,6.851-5.658,9.559c-2.744,2.689-5.864,4.723-9.271,6.043c-1.555,0.558-3.092,0.948-4.583,1.166
				C214.679,363.274,214.163,363.313,213.645,363.313z M239.521,308.087c-0.63,0.004-1.318,0.106-1.981,0.311
				c-0.683,0.208-1.299,0.422-1.83,0.634c-1.482,0.529-3.138,1.439-4.938,2.71c-1.46,1.149-2.827,2.516-4.043,4.046
				c-1.176,1.487-1.824,3.171-1.926,5.003c-0.099,1.138,0.048,2.12,0.447,3.021c0.414,0.937,0.896,1.846,1.431,2.703
				c0.739,1.162,1.404,2.323,1.975,3.449c0.555,1.116,1.054,2.282,1.484,3.469l0.59,2.905l-4.757,2.114
				c-2.771,1.386-5.552,2.884-8.243,4.443c-2.685,1.561-5.234,3.323-7.577,5.237c-0.615,0.514-1.265,1.139-1.98,1.907
				c-0.683,0.737-1.296,1.51-1.822,2.294c-0.501,0.753-0.859,1.573-1.065,2.439c-0.196,0.834-0.146,1.676,0.151,2.573
				c0.484,1.063,1.229,2.011,2.193,2.771c0.979,0.777,2.054,1.38,3.193,1.793c1.396,0.401,2.826,0.509,4.222,0.3
				c1.427-0.208,2.899-0.582,4.379-1.112c3.269-1.267,6.274-3.227,8.922-5.821c2.634-2.581,4.449-5.65,5.396-9.12
				c0.734-2.429,0.947-4.986,0.638-7.616l-0.066-0.559h0.563c0.063,0,0.105-0.003,0.133-0.005c0.079-0.06,0.188-0.115,0.33-0.142
				c0.431-0.305,0.87-0.519,1.311-0.636c0.836-0.416,1.77-0.8,2.775-1.144c0.897-0.446,1.765-0.824,2.59-1.13
				c0.845-0.317,1.706-0.693,2.557-1.116c3.308-1.392,6.707-2.709,10.131-3.927c3.361-1.195,6.778-2.386,10.247-3.576
				c2.269-0.757,4.574-1.471,6.855-2.123c2.294-0.656,4.661-1.207,7.034-1.638l0.579-0.008c0.068,0,0.112-0.004,0.139-0.007
				c0.154-0.107,0.367-0.156,0.674-0.156c0.23,0,0.523-0.037,0.613-0.212c0.053-0.107,0.105-0.306-0.084-0.696
				c-0.627-0.883-1.558-1.346-2.804-1.346c-0.702,0-1.445,0.055-2.208,0.163c-0.724,0.103-1.467,0.261-2.21,0.473
				c-1.36,0.37-2.477,0.654-3.518,0.896c-1.143,0.276-2.301,0.628-3.438,1.042c-3.228,0.968-6.502,2.032-9.76,3.172
				c-3.191,1.118-6.415,2.292-9.581,3.491c-4.65,1.733-9.015,3.534-12.973,5.354l-0.439,0.202l-0.217-0.432
				c-0.143-0.286-0.213-0.52-0.213-0.714l0,0c-0.001,0-0.017-0.076-0.111-0.266c-0.531-1.274-1.126-2.516-1.782-3.723
				c-0.633-1.163-1.328-2.342-2.067-3.505c-0.22-0.233-0.356-0.479-0.407-0.73l-0.187-0.188v-0.258
				c-0.114-0.259-0.266-0.671-0.46-1.253l-0.025-0.158v-1.289l0.278-0.138c0.867-0.43,1.767-0.864,2.688-1.303
				c0.91-0.425,1.794-0.906,2.632-1.433c1.638-0.939,3.094-1.813,4.468-2.684c1.422-0.891,2.733-1.935,3.899-3.103
				c0.411-0.408,0.8-0.877,1.157-1.393c0.295-0.415,0.353-0.841,0.185-1.346c-0.205-0.996-0.702-1.653-1.535-2.066
				C241.214,308.477,240.336,308.191,239.521,308.087z M235.64,338.748c-0.003,0.003-0.005,0.005-0.007,0.007
				C235.635,338.753,235.637,338.751,235.64,338.748z M279.478,322.596c-0.001,0.001-0.001,0.001-0.002,0.002
				C279.477,322.597,279.477,322.597,279.478,322.596z M212.985,359.79l-2.469-0.01c-0.01-0.002-0.02-0.003-0.029-0.005v0.015
				h-0.664v-0.164h-0.158l-0.017-0.308l-0.181-0.181h-0.298v-0.471c-0.063-0.081-0.113-0.192-0.139-0.318
				c-0.099-0.154-0.183-0.376-0.183-0.684v-1.581l0.541-1.081c0.235-0.468,0.496-0.901,0.774-1.289
				c0.294-0.409,0.602-0.774,0.94-1.117l0.333-0.328c0.066-0.065,0.116-0.131,0.146-0.19c0.085-0.164,0.199-0.315,0.344-0.459
				c0.232-0.231,0.464-0.439,0.698-0.613c0.219-0.164,0.414-0.334,0.597-0.521c0.595-0.478,1.144-0.887,1.69-1.275
				c0.538-0.376,1.074-0.778,1.605-1.202c1.271-0.854,2.552-1.682,3.948-2.554c1.266-0.794,2.604-1.57,4.091-2.373
				c1.015-0.562,1.956-1.045,2.872-1.476c0.942-0.444,1.888-0.932,2.812-1.448l0.857-0.479l-0.117,0.975
				c-0.229,1.92-0.613,3.506-1.175,4.848c-0.306,0.822-0.684,1.688-1.147,2.629c-0.442,0.886-0.948,1.729-1.504,2.509l-0.014,0.019
				c-1.187,1.511-2.354,2.79-3.471,3.803c-0.808,0.58-1.538,1.092-2.242,1.583c-0.711,0.49-1.441,1.001-2.193,1.539l-1.08,0.548
				c-0.108,0.116-0.276,0.197-0.512,0.197h-0.128c-0.114,0.085-0.244,0.136-0.392,0.154c-0.891,0.438-1.596,0.703-2.153,0.81
				L212.985,359.79z M210.823,358.79h2.039l1.892-0.476c0.507-0.098,1.175-0.355,2.013-0.772l0.192-0.053
				c0.106-0.081,0.276-0.162,0.521-0.162h0.014c0.084-0.074,0.195-0.129,0.333-0.151l0.894-0.447
				c0.69-0.501,1.425-1.016,2.138-1.507c0.7-0.488,1.427-0.998,2.187-1.539c1.027-0.937,2.154-2.171,3.303-3.634
				c0.523-0.734,0.999-1.53,1.416-2.363c0.447-0.907,0.813-1.743,1.113-2.553c0.435-1.039,0.755-2.229,0.978-3.625
				c-0.662,0.352-1.331,0.688-1.999,1.002c-0.896,0.422-1.818,0.896-2.818,1.448c-1.472,0.796-2.792,1.562-4.04,2.344
				c-1.388,0.867-2.659,1.688-3.889,2.513c-0.516,0.412-1.067,0.828-1.619,1.213c-0.529,0.376-1.064,0.775-1.599,1.199
				c-0.173,0.183-0.406,0.386-0.667,0.58c-0.197,0.148-0.394,0.325-0.592,0.522c-0.088,0.087-0.133,0.157-0.155,0.201
				c-0.075,0.15-0.189,0.305-0.336,0.45l-0.329,0.324c-0.297,0.301-0.571,0.627-0.834,0.993c-0.248,0.345-0.481,0.733-0.693,1.153
				l-0.435,0.869v1.345c0,0.092,0.019,0.136,0.024,0.144l0.108,0.137l0.024,0.166c0.037,0.051,0.071,0.108,0.099,0.174
				c0.061,0.05,0.111,0.11,0.149,0.18h0.411v0.161h0.158V358.79z M217.588,358.266c-0.005,0.005-0.01,0.009-0.014,0.013
				C217.578,358.274,217.583,358.271,217.588,358.266z M210.011,358.142l0.002,0.014
				C210.013,358.152,210.012,358.147,210.011,358.142z M209.943,358.033c0.014,0.015,0.026,0.03,0.039,0.047
				C209.973,358.065,209.96,358.049,209.943,358.033z M228.894,317.992l3.553-2.828c1.105-0.879,2.206-1.649,3.272-2.29
				c0.704-0.579,1.293-0.924,1.798-1.053l2.469-0.633l-3.35,2.495c-0.438,0.324-0.87,0.647-1.299,0.972
				c-0.483,0.251-0.848,0.46-1.159,0.669c-0.339,0.229-0.743,0.458-1.201,0.681L228.894,317.992z"/>
		</g>
		<g>
			<path fill="#053927" d="M414.025,318.159c0.871,0.219,1.791,0.65,2.767,1.3c0.977,0.655,1.571,1.464,1.788,2.44
				c0.108,0.543-0.031,0.891-0.408,1.055c-0.377,0.163-0.834,0.244-1.38,0.244c-0.539-0.215-1.059-0.489-1.544-0.809
				c-0.488-0.33-0.84-0.761-1.057-1.302c0,0.107,0.057,0.159,0.165,0.159c-0.108,0-0.165-0.052-0.165-0.159h-0.166h-0.157h-0.646
				h-0.331h0.331c-0.331,0-0.603-0.026-0.816-0.088c-0.223-0.051-0.491-0.077-0.816-0.077c-0.54,0-1.113,0.026-1.708,0.077
				c-0.594,0.062-1.162,0.088-1.702,0.088c-0.435,0-1.085,0.107-1.953,0.321h-0.651h-0.16c-0.225,0-0.405,0.031-0.57,0.084
				c-0.163,0.053-0.356,0.08-0.571,0.08c-3.575,0.544-7.153,1.217-10.729,2.033c-3.578,0.809-7.15,1.708-10.731,2.682
				c-4.118,1.085-8.207,2.17-12.271,3.252c-4.066,1.086-8.156,2.22-12.276,3.414c-3.575,1.087-7.153,2.144-10.731,3.172
				c-3.573,1.031-7.205,2.028-10.892,3.003c-1.193,0.438-2.438,0.816-3.738,1.142c-1.297,0.323-2.599,0.648-3.904,0.977
				c-0.865,0.218-1.76,0.405-2.683,0.566c-0.92,0.163-1.815,0.244-2.678,0.244c-2.062,0.216-4.015-0.189-5.852-1.219
				c-1.85-1.027-3.201-2.521-4.065-4.469c-0.652-1.517-0.951-3.117-0.896-4.798c0.053-1.679,0.024-3.335-0.084-4.959
				c0-0.214-0.028-0.38-0.08-0.488c-0.052-0.105-0.079-0.27-0.079-0.485v-0.161v-0.164v-0.326h-0.327
				c-1.622,0.326-3.252,0.812-4.878,1.46c-1.624,0.65-3.195,1.25-4.71,1.789c-1.952,0.761-3.905,1.493-5.856,2.195
				c-1.949,0.708-3.956,1.327-6.012,1.872c-1.521,0.541-3.17,0.974-4.96,1.298c-1.79,0.326-3.494,0.272-5.124-0.164
				c-0.973-0.213-1.868-0.568-2.679-1.054c-0.819-0.489-1.491-1.165-2.036-2.032c-0.754-1.298-0.92-2.818-0.488-4.553
				c0.543-1.842,1.573-3.494,3.092-4.959c1.516-1.462,3.031-2.682,4.554-3.654c2.273-1.518,4.711-2.714,7.313-3.579
				c2.605-0.865,5.226-1.356,7.886-1.465c2.653-0.104,5.285,0.243,7.886,1.062c2.6,0.811,4.983,2.085,7.15,3.817
				c0.219,0.221,0.519,0.568,0.896,1.057c0.377,0.489,0.297,0.894-0.243,1.22c-0.435,0.322-0.95,0.383-1.544,0.161
				c-0.596-0.216-1.114-0.487-1.551-0.81c-0.217-0.11-0.482-0.326-0.807-0.652c-0.112,0-0.19-0.027-0.244-0.082
				c-0.056-0.049-0.138-0.081-0.246-0.081l-0.161-0.327h-0.161c-0.112-0.104-0.191-0.164-0.243-0.164
				c-0.059,0-0.137-0.052-0.247-0.156c-0.11,0-0.378-0.107-0.811-0.328l-0.165-0.161h-0.164c-0.218-0.109-0.376-0.164-0.484-0.164
				c-0.111,0-0.22-0.052-0.324-0.163c-0.218-0.106-0.38-0.162-0.49-0.162c-0.109,0-0.271-0.053-0.492-0.16
				c-0.213,0-0.318-0.055-0.318-0.164c-0.438,0-0.787-0.022-1.063-0.084c-0.265-0.049-0.564-0.131-0.889-0.244h-0.49h-0.164h-0.812
				h-1.949h-0.815h-0.485l-0.325,0.164c-1.195,0.113-2.357,0.328-3.495,0.65c-1.136,0.327-2.305,0.709-3.493,1.137
				c-1.847,0.871-3.688,1.928-5.532,3.173c-1.843,1.245-3.358,2.684-4.548,4.309c-0.22,0.435-0.437,0.812-0.656,1.137
				c-0.216,0.323-0.429,0.708-0.647,1.14c0,0.108-0.029,0.164-0.08,0.164c-0.058,0-0.081,0.054-0.081,0.16v0.164v0.321
				c-0.111,0.221-0.161,0.549-0.161,0.98v0.648c0,0.217,0.05,0.38,0.161,0.485h0.324h0.164h0.16h0.979h1.135h0.328
				c0.104-0.105,0.268-0.165,0.483-0.165c1.086-0.213,2.007-0.428,2.768-0.648c1.947-0.54,3.901-1.138,5.852-1.786
				c1.95-0.651,3.843-1.301,5.691-1.949c1.727-0.651,3.411-1.302,5.035-1.952c1.629-0.65,3.307-1.192,5.044-1.628
				c1.517-0.54,2.871-0.752,4.061-0.65c2.28,0.329,3.797,1.521,4.552,3.579c0.324,0.651,0.518,1.329,0.57,2.032
				c0.056,0.708,0.081,1.438,0.081,2.198c0.11,0.864,0.137,1.676,0.081,2.431c-0.054,0.764-0.028,1.576,0.08,2.44v0.653
				c0.106,0,0.167,0.056,0.167,0.162v0.162c0,0.217,0.022,0.403,0.081,0.567c0.052,0.165,0.083,0.355,0.083,0.569l0.484,0.975v0.165
				v0.164c0.104,0,0.163,0.105,0.163,0.325h0.157v0.161c0.112,0,0.165,0.055,0.165,0.16v-0.16v0.16c0.11,0,0.164,0.062,0.164,0.163
				h0.162v0.163c0.214,0,0.434,0.028,0.656,0.082c0.21,0.056,0.099,0.026-0.33-0.082c0.107,0,0.215,0.028,0.33,0.082
				c0.099,0.056,0.21,0.082,0.32,0.082h0.322h0.166c0.326,0.105,0.703,0.105,1.139,0h0.162h0.158h0.164h-0.164h0.164
				c0.438-0.108,0.84-0.188,1.228-0.243c0.374-0.055,0.834-0.137,1.374-0.247c2.816-0.646,5.587-1.354,8.291-2.111
				c2.71-0.759,5.477-1.571,8.293-2.44c3.903-1.08,7.775-2.163,11.625-3.25c3.847-1.082,7.725-2.22,11.625-3.415
				c3.901-1.082,7.83-2.14,11.785-3.167c3.955-1.031,7.939-2.032,11.951-3.008c3.142-0.76,6.313-1.437,9.509-2.032
				c3.198-0.6,6.366-1.003,9.51-1.224c1.193,0,2.327,0.028,3.413,0.083C411.863,317.646,412.943,317.834,414.025,318.159z
				 M279.908,330.188l-0.326-0.165l0.163,0.165H279.908z M318.594,337.994v-0.161l0.165,0.161H318.594z M318.923,338.317
				c0-0.102-0.054-0.163-0.164-0.163c0.22,0,0.326,0.062,0.326,0.163H318.923z M413.868,320.763h0.157v0.325
				C413.923,320.979,413.868,320.869,413.868,320.763z M414.191,321.088h-0.166H414.191z M414.52,321.247
				c0.212,0.111,0.3,0.162,0.24,0.162C414.702,321.409,414.622,321.358,414.52,321.247z"/>
			<path fill="#053927" d="M322.563,342.615c-1.733,0-3.427-0.448-5.018-1.34c-1.93-1.072-3.369-2.654-4.278-4.702
				c-0.682-1.584-0.996-3.271-0.938-5.018c0.052-1.652,0.024-3.305-0.083-4.909c-0.001-0.234-0.032-0.306-0.032-0.307
				c-0.085-0.173-0.128-0.404-0.128-0.7v-0.115c-1.451,0.313-3,0.782-4.52,1.389c-1.708,0.684-3.255,1.271-4.728,1.795
				c-1.943,0.758-3.918,1.498-5.855,2.195c-1.895,0.688-3.932,1.322-6.053,1.885c-1.503,0.537-3.198,0.98-4.999,1.307
				c-1.852,0.336-3.65,0.278-5.342-0.173c-0.992-0.217-1.943-0.592-2.807-1.108c-0.874-0.521-1.615-1.261-2.203-2.195
				c-0.829-1.428-1.012-3.084-0.55-4.939c0.571-1.938,1.655-3.679,3.23-5.197c1.541-1.487,3.1-2.738,4.631-3.716
				c2.302-1.537,4.802-2.761,7.424-3.633c2.649-0.88,5.349-1.381,8.023-1.49c2.719-0.104,5.432,0.259,8.057,1.085
				c2.642,0.823,5.103,2.137,7.313,3.903c0.295,0.293,0.61,0.664,0.979,1.142c0.277,0.359,0.385,0.717,0.319,1.063
				c-0.065,0.351-0.301,0.65-0.699,0.891c-0.537,0.4-1.236,0.479-1.978,0.202c-0.633-0.229-1.197-0.524-1.673-0.876
				c-0.175-0.082-0.428-0.277-0.741-0.58c-0.11-0.026-0.209-0.073-0.295-0.14l-0.254-0.015l-0.228-0.311l-0.144-0.133
				c-0.021-0.019-0.039-0.036-0.056-0.05c-0.122-0.031-0.228-0.096-0.32-0.17c-0.168-0.045-0.409-0.145-0.813-0.351l-0.326-0.159
				c-0.262-0.132-0.272-0.112-0.276-0.112c-0.146,0-0.372-0.045-0.597-0.246c-0.176-0.081-0.209-0.079-0.216-0.079
				c-0.16,0-0.351-0.051-0.6-0.164c-0.208-0.018-0.354-0.081-0.456-0.162c-0.38-0.009-0.667-0.038-0.912-0.093
				c-0.252-0.047-0.547-0.126-0.863-0.232h-4.513l-0.397,0.162c-1.165,0.11-2.312,0.323-3.405,0.634
				c-1.101,0.316-2.266,0.695-3.461,1.126c-1.765,0.835-3.604,1.89-5.422,3.116c-1.782,1.204-3.271,2.614-4.424,4.189
				c-0.19,0.392-0.415,0.781-0.646,1.122c-0.173,0.26-0.356,0.579-0.572,1c-0.021,0.142-0.076,0.254-0.15,0.337v0.451l-0.054,0.106
				c-0.049,0.097-0.107,0.307-0.107,0.755v0.634h2.585c0.151-0.091,0.362-0.165,0.65-0.165c0.994-0.204,1.886-0.413,2.628-0.629
				c1.916-0.531,3.877-1.13,5.833-1.78c1.947-0.65,3.838-1.299,5.685-1.946c1.712-0.646,3.394-1.296,5.015-1.944
				c1.644-0.657,3.362-1.211,5.108-1.649c1.518-0.543,2.951-0.774,4.225-0.663c2.493,0.359,4.159,1.672,4.979,3.905
				c0.333,0.663,0.542,1.409,0.6,2.167c0.055,0.705,0.082,1.437,0.082,2.235c0.109,0.827,0.138,1.679,0.08,2.468
				c-0.052,0.731-0.025,1.521,0.077,2.341l0.002,0.424c0.106,0.116,0.169,0.273,0.169,0.454v0.162c0,0.171,0.017,0.302,0.052,0.399
				c0.064,0.203,0.1,0.405,0.109,0.614l0.487,0.98v0.192c0.019,0.024,0.036,0.051,0.052,0.079h0.269l0.015,0.304l0.11,0.107
				c0.045,0.022,0.085,0.047,0.119,0.073h0.247v0.177c0.108,0.017,0.218,0.049,0.33,0.098l0.043,0.012l-0.001,0.004
				c0.018,0.006,0.033,0.013,0.049,0.02l0.056,0.018l0.643,0.024c0.237,0.078,0.521,0.073,0.867-0.011l0.541-0.014
				c0.432-0.105,0.831-0.183,1.217-0.238c0.365-0.053,0.816-0.134,1.346-0.242c2.737-0.628,5.52-1.337,8.256-2.103
				c2.752-0.771,5.537-1.59,8.28-2.437c3.917-1.084,7.788-2.167,11.637-3.254c3.887-1.093,7.794-2.241,11.614-3.412
				c4.004-1.11,7.972-2.177,11.806-3.173c3.838-1,7.861-2.013,11.959-3.01c3.117-0.753,6.324-1.438,9.535-2.037
				c3.164-0.594,6.383-1.008,9.566-1.231c1.234,0.005,2.371,0.027,3.474,0.083c1.124,0.059,2.253,0.256,3.356,0.586
				c0.92,0.233,1.898,0.692,2.911,1.366c1.083,0.727,1.755,1.651,1.999,2.748c0.211,1.057-0.347,1.469-0.697,1.621
				c-0.444,0.192-0.961,0.286-1.579,0.286l-0.186-0.035c-0.562-0.225-1.11-0.512-1.633-0.855c-0.425-0.287-0.763-0.642-1.013-1.061
				l-0.15-0.159l-0.919-0.01c-0.242-0.015-0.447-0.047-0.624-0.098c-0.16-0.036-0.397-0.058-0.678-0.058
				c-0.52,0-1.08,0.025-1.665,0.075c-0.571,0.06-1.161,0.09-1.745,0.09c-0.391,0-1.007,0.104-1.834,0.307l-0.119,0.015h-0.812
				c-0.156,0-0.289,0.02-0.418,0.061c-0.213,0.068-0.457,0.104-0.724,0.104c-3.541,0.545-7.139,1.227-10.617,2.021
				c-3.455,0.781-6.958,1.656-10.712,2.677c-4.121,1.086-8.21,2.171-12.272,3.253c-4.199,1.121-8.326,2.269-12.266,3.411
				c-3.499,1.063-7.112,2.132-10.733,3.172c-3.433,0.991-6.998,1.974-10.901,3.006c-1.148,0.423-2.423,0.813-3.745,1.144
				l-3.903,0.977c-0.855,0.215-1.771,0.408-2.719,0.573c-0.941,0.167-1.871,0.252-2.764,0.252
				C323.28,342.596,322.921,342.615,322.563,342.615z M312.585,324.488h0.5v1.151c0,0.197,0.028,0.266,0.028,0.267
				c0.088,0.183,0.131,0.419,0.131,0.707c0.108,1.604,0.137,3.289,0.084,4.975c-0.054,1.601,0.234,3.143,0.854,4.585
				c0.817,1.84,2.112,3.265,3.85,4.229c1.737,0.974,3.608,1.362,5.557,1.159c0.886-0.003,1.757-0.082,2.643-0.239
				c0.925-0.162,1.815-0.35,2.647-0.56l3.905-0.977c1.287-0.322,2.528-0.7,3.688-1.126c3.939-1.044,7.499-2.024,10.925-3.014
				c3.616-1.039,7.225-2.105,10.725-3.17c3.952-1.146,8.086-2.295,12.293-3.419c4.064-1.082,8.153-2.167,12.272-3.252
				c3.764-1.023,7.28-1.902,10.748-2.686c3.502-0.8,7.123-1.486,10.764-2.04c0.235-0.006,0.38-0.025,0.492-0.062
				c0.229-0.073,0.465-0.108,0.725-0.108h0.751c0.888-0.216,1.547-0.321,2.014-0.321c0.55,0,1.104-0.028,1.65-0.085
				c1.031-0.09,2.019-0.144,2.688,0.01c0.185,0.052,0.413,0.075,0.705,0.075h0.01l-1.038-1.127l1.497,0.786v-1.665
				c-0.97-0.275-1.958-0.441-2.941-0.493c-1.084-0.055-2.224-0.082-3.387-0.082c-3.11,0.22-6.291,0.629-9.418,1.215
				c-3.193,0.596-6.384,1.277-9.483,2.027c-4.091,0.995-8.109,2.006-11.942,3.005c-3.829,0.995-7.791,2.06-11.777,3.165
				c-3.814,1.17-7.729,2.319-11.623,3.415c-3.851,1.087-7.724,2.17-11.627,3.25c-2.737,0.846-5.532,1.668-8.292,2.44
				c-2.752,0.771-5.549,1.482-8.313,2.117c-0.563,0.115-1.032,0.198-1.414,0.255c-0.373,0.054-0.76,0.129-1.18,0.233l-0.547,0.015
				c-0.467,0.105-0.893,0.105-1.27,0h-0.415c-0.168,0-0.333-0.035-0.481-0.104c-0.203-0.045-0.353-0.061-0.495-0.061h-0.5v-0.163
				h-0.162v-0.071l-3.029-0.766h2.38v-0.685l-0.484-0.975v-0.117c0-0.151-0.021-0.293-0.061-0.42
				c-0.054-0.151-0.087-0.329-0.099-0.541h-0.172v-1.153c-0.107-0.823-0.135-1.677-0.079-2.476c0.054-0.724,0.027-1.508-0.078-2.332
				c-0.004-0.836-0.03-1.542-0.083-2.223c-0.048-0.63-0.223-1.251-0.52-1.849c-0.715-1.938-2.073-3.004-4.176-3.307
				c-1.101-0.097-2.392,0.117-3.821,0.626c-1.749,0.441-3.424,0.981-5.026,1.621c-1.627,0.652-3.314,1.304-5.044,1.956
				c-1.862,0.653-3.757,1.304-5.71,1.956c-1.973,0.655-3.949,1.259-5.876,1.793c-0.767,0.223-1.686,0.438-2.806,0.657
				c-0.178,0.01-0.22,0.025-0.229,0.031l-0.147,0.149l-3.827-0.006l-2.468-2.497l2.34,1.184v-0.32c0-0.463,0.052-0.813,0.161-1.087
				v-0.379c0-0.236,0.082-0.405,0.2-0.514l0.015-0.036c0.253-0.5,0.469-0.878,0.678-1.191c0.208-0.308,0.412-0.661,0.626-1.085
				c1.265-1.738,2.836-3.229,4.714-4.497c1.86-1.256,3.744-2.336,5.6-3.211c1.259-0.456,2.444-0.842,3.567-1.165
				c1.125-0.318,2.299-0.54,3.492-0.658l0.348-0.176l5,0.028c0.299,0.104,0.572,0.18,0.814,0.225
				c0.238,0.053,0.541,0.075,0.972,0.075h0.5l0.037,0.215c0.274,0.133,0.281,0.11,0.285,0.109c0.18,0,0.397,0.066,0.698,0.213
				l0.145,0.107c0.132,0.004,0.315,0.056,0.559,0.169h0.253l0.256,0.25c0.422,0.212,0.544,0.239,0.557,0.242h0.199l0.104,0.134
				c0.027,0.023,0.034,0.031,0.025,0.032c0.114,0.024,0.214,0.082,0.305,0.151h0.289l0.191,0.39
				c0.067,0.026,0.131,0.062,0.188,0.105l0.131,0.013l0.185,0.13c0.355,0.357,0.565,0.502,0.679,0.56
				c0.469,0.337,0.948,0.587,1.494,0.785c0.434,0.16,0.774,0.132,1.076-0.093c0.211-0.13,0.267-0.213,0.273-0.245
				c0.005-0.03-0.016-0.121-0.129-0.269c-0.428-0.553-0.701-0.854-0.855-1.01c-2.068-1.649-4.419-2.904-6.943-3.691
				c-2.516-0.791-5.111-1.144-7.718-1.039c-2.581,0.104-5.188,0.589-7.748,1.439c-2.537,0.844-4.957,2.028-7.192,3.521
				c-1.484,0.948-2.99,2.157-4.484,3.599c-1.447,1.396-2.443,2.991-2.959,4.74c-0.391,1.573-0.244,2.979,0.441,4.16
				c0.5,0.796,1.111,1.407,1.859,1.854c0.771,0.462,1.622,0.796,2.529,0.995c1.569,0.419,3.219,0.471,4.928,0.16
				c1.748-0.316,3.391-0.746,4.882-1.276c2.132-0.567,4.141-1.192,6.009-1.871c1.931-0.695,3.896-1.432,5.846-2.191
				c1.475-0.525,3.01-1.108,4.706-1.787c1.636-0.653,3.307-1.152,4.965-1.486L312.585,324.488z M415.214,321.726
				c0.095,0.089,0.2,0.173,0.314,0.25c0.433,0.285,0.892,0.528,1.359,0.722c0.431-0.009,0.795-0.076,1.086-0.202
				c0.073-0.032,0.198-0.086,0.116-0.498c-0.187-0.839-0.703-1.537-1.576-2.123c-0.92-0.612-1.798-1.026-2.61-1.229l-0.021-0.007
				c-0.051-0.015-0.101-0.029-0.151-0.044l0.669,1.669h0.126l0.004,0.325h0.162v0.185l0.061,0.032
				c0.286,0.149,0.609,0.32,0.512,0.719L415.214,321.726z M414.76,320.909v0.116l0.109-0.101
				C414.84,320.916,414.803,320.909,414.76,320.909z M310.219,317.527c0.005,0.004,0.009,0.008,0.014,0.012
				C310.229,317.535,310.224,317.531,310.219,317.527z M309.091,316.843c0.001,0,0.001,0,0.002,0
				C309.092,316.843,309.092,316.843,309.091,316.843z"/>
		</g>
		<g>
			<g>
				<path fill="#053927" d="M175.048,281.648c-0.58,0.442-1.201,0.82-1.87,1.135c-0.667,0.313-1.384,0.559-2.149,0.734
					c-0.766,0.177-1.62,0.267-2.562,0.267c-1.492,0-2.867-0.275-4.124-0.825s-2.345-1.3-3.27-2.253
					c-0.921-0.951-1.642-2.076-2.162-3.371c-0.521-1.297-0.78-2.691-0.78-4.183c0-1.472,0.259-2.857,0.78-4.151
					c0.521-1.297,1.241-2.432,2.162-3.401c0.925-0.973,2.022-1.74,3.301-2.299c1.274-0.559,2.67-0.839,4.182-0.839
					c0.941,0,1.789,0.079,2.548,0.235c0.754,0.157,1.455,0.378,2.103,0.663c0.651,0.285,1.248,0.629,1.798,1.03
					c0.551,0.403,1.08,0.85,1.592,1.341l-1.592,1.707c-0.884-0.823-1.83-1.5-2.842-2.031c-1.01-0.531-2.224-0.796-3.637-0.796
					c-1.139,0-2.193,0.217-3.166,0.647c-0.971,0.434-1.816,1.032-2.532,1.798c-0.717,0.766-1.276,1.664-1.679,2.693
					c-0.402,1.032-0.604,2.146-0.604,3.343c0,1.197,0.201,2.317,0.604,3.357c0.402,1.042,0.962,1.943,1.679,2.708
					c0.716,0.769,1.562,1.371,2.532,1.813c0.973,0.442,2.027,0.662,3.166,0.662c1.413,0,2.632-0.26,3.652-0.779
					c1.02-0.521,2.021-1.252,3.003-2.194l1.532,1.502C176.181,280.711,175.628,281.207,175.048,281.648z"/>
			</g>
			<g>
				<path fill="#053927" d="M220.591,283.43h-2.503l-2.414-5.448h-11.221l-2.445,5.448h-2.386l9.397-20.763h2.178L220.591,283.43z
					 M210.079,265.407l-4.713,10.513h9.395L210.079,265.407z"/>
			</g>
			<g>
				<path fill="#053927" d="M260.085,264.966h-12.487v7.362h11.16v2.121h-11.16v8.98h-2.326v-20.615h14.813V264.966z"/>
			</g>
			<g>
				<path fill="#053927" d="M300.106,264.935h-12.575v7.039h11.249v2.121h-11.249v7.216h12.721v2.119h-15.047v-20.615h14.901
					V264.935z"/>
			</g>
		</g>
		<g>
			<rect x="130.912" y="296.04" fill="#A8C06F" width="195.106" height="2"/>
		</g>
		<g>
			<path fill="#053927" d="M229.594,321.451c-0.854-1.219-2.03-1.837-3.495-1.837c-1.461,0-2.906,0.227-4.297,0.672
				c-1.329,0.423-2.684,0.92-4.039,1.481c-1.936,0.861-3.906,1.766-5.857,2.688c-1.896,0.891-3.875,1.907-5.882,3.02
				c-2.491,1.362-4.782,2.668-7.006,3.991c-2.323,1.385-4.623,2.782-6.841,4.154l-5.345,3.398c0.127-0.371,0.26-0.74,0.377-1.115
				c0.83-2.647,1.357-5.359,1.693-8.111c0.152-1.244,0.25-2.494,0.288-3.747c0.042-1.388,0.191-3.045-0.21-4.389
				c-0.225-0.751-0.64-1.381-1.262-1.853c-0.113-0.086-0.212-0.158-0.309-0.224c-0.457-0.408-1.323-0.762-1.746-0.888
				c-1.13-0.336-2.39-0.213-3.502,0.123c-2.487,0.752-4.749,2.28-6.914,3.67c-2.958,1.898-5.884,3.847-8.931,5.603
				c-3.632,2.093-6.839,3.673-10.59,4.845c-0.933,0.292-1.877,0.55-2.831,0.768c-0.53,0.121-1.063,0.23-1.6,0.325
				c-0.214,0.038-0.43,0.071-0.645,0.107c-0.105,0.019-0.178,0.031-0.233,0.041c-0.057,0.005-0.129,0.012-0.232,0.022
				c-2.021,0.203-3.984,0.172-5.999,0.014c0.175,0.003-0.585-0.096-0.797-0.152c-0.17-0.046-0.335-0.104-0.504-0.154
				c-0.007-0.002-0.014-0.005-0.021-0.008c-0.235-0.152-0.509-0.313-0.762-0.439c-0.1-0.106-0.209-0.228-0.32-0.33
				c-0.006-0.01-0.007-0.013-0.014-0.023c-0.017-0.024-0.024-0.041-0.038-0.063c0.002,0.013,0.003,0.026,0.004,0.04
				c-0.001-0.001-0.003-0.003-0.005-0.004c-0.002-0.018-0.003-0.032-0.008-0.052c-0.033-0.057-0.06-0.104-0.076-0.141
				c-0.017,0.013-0.026,0.028-0.05,0.039c0.003-0.002-0.027-0.339-0.03-0.395c-0.006-0.014-0.013-0.034-0.018-0.046
				c-0.046-0.113-0.022-0.131,0.021-0.104c0.006-0.148,0.011-0.297,0.013-0.445c0.026-0.119,0.045-0.244,0.073-0.358
				c0.08-0.323,0.206-0.629,0.295-0.948c-0.025,0.054-0.054,0.112-0.091,0.188c0.033-0.069,0.065-0.14,0.098-0.21
				c0.036-0.117,0.125-0.282,0.088-0.188c0.026-0.059,0.053-0.118,0.082-0.177c2.031-4.103,5.817-7.34,9.665-10.489
				c1.307-1.069,1.109-3.31,0-4.419c-1.293-1.293-3.109-1.073-4.42,0c-3.658,2.995-7.291,6.295-9.835,10.328
				c-1.559,2.471-2.634,5.413-2.039,8.354c1.127,5.586,7.299,6.701,12.064,6.606c8.547-0.171,16.557-3.873,23.744-8.223
				c2.903-1.757,5.704-3.673,8.587-5.463c0.998-0.619,2.013-1.21,3.063-1.735c0,0.001,0,0.002,0,0.003
				c-0.026,2.802-0.354,5.523-1.004,8.245c-1.058,4.43-2.887,8.562-5.296,12.377c-2.292,1.696-4.619,3.391-7.104,5.174
				c-2.406,1.724-4.854,3.506-7.491,5.454c-2.37,1.813-4.643,3.592-6.755,5.29c-2.212,1.78-4.431,3.616-6.59,5.45
				c-1.852,1.529-3.661,3.094-5.378,4.649c-1.709,1.542-3.417,3.22-5.08,4.991c-1.203,1.316-2.382,2.662-3.502,3.998
				c-1.135,1.345-2.165,2.819-3.066,4.39c-0.564,1.021-0.964,2.108-1.188,3.23c-0.242,1.202-0.003,2.416,0.706,3.603
				c0.815,1.402,2.169,2.407,4.028,2.989c0.85,0.259,1.721,0.39,2.601,0.39c0.28,0,0.562-0.014,0.843-0.04
				c1.135-0.12,2.274-0.407,3.396-0.855c2.834-1.196,5.554-2.833,8.085-4.865c2.534-2.039,4.952-4.153,7.192-6.291
				c2.912-2.911,5.739-6.013,8.404-9.22c2.627-3.16,5.232-6.534,7.748-10.035c1.713-2.465,3.414-5.042,5.056-7.661
				c1.602-2.563,3.068-5.274,4.361-8.063c1.765-1.246,3.694-2.549,5.907-3.987c4.63-3.231,9.541-6.34,14.588-9.235
				c2.168-1.19,4.308-2.387,6.424-3.577c2.095-1.185,4.246-2.33,6.393-3.402c0.208-0.103,0.435-0.207,0.705-0.311
				c0.279-0.114,0.539-0.23,0.768-0.349l0.095-0.105c0.188,0,0.365-0.061,0.532-0.18c0.14-0.029,0.245-0.086,0.321-0.145
				l0.187-0.053c0.42-0.209,0.82-0.4,1.186-0.559c0.379-0.159,0.835-0.345,1.415-0.577c1.246-0.627,2.627-1.105,4.156-1.437
				c0.306-0.101,0.586-0.179,0.836-0.228c0.271-0.054,0.56-0.132,0.881-0.235h0.894c0.745,0,1.261-0.213,1.532-0.634
				C230.034,322.938,230.001,322.329,229.594,321.451z M168.785,360.547c-1.392,1.982-2.862,3.973-4.373,5.914
				c-2.504,3.153-5.096,6.208-7.701,9.079c-2.637,2.903-5.439,5.679-8.313,8.235c-1.211,0.985-2.436,1.938-3.639,2.831
				c-1.254,0.924-2.523,1.762-3.747,2.475c-0.434,0.217-0.957,0.527-1.557,0.923L139.239,390l-0.147,0.149
				c0,0.001-0.033,0.019-0.131,0.019l-0.187,0.019l-0.146,0.142c-0.2,0-0.393,0.074-0.574,0.221l-1.291,0.431h-0.88v-0.205
				c0.08-0.193,0.13-0.386,0.149-0.576c0.097-0.153,0.153-0.335,0.17-0.543c0.097-0.199,0.195-0.426,0.295-0.672
				c0.093-0.231,0.241-0.503,0.45-0.823c0.326-0.543,0.679-1.14,1.063-1.793c0.346-0.601,0.784-1.168,1.364-1.76
				c0.211-0.312,0.441-0.625,0.697-0.935c0.263-0.311,0.55-0.628,0.867-0.943l0.099-0.139c0.023-0.049,0.042-0.085,0.057-0.11
				c0.188-0.104,0.309-0.306,0.389-0.459l0.268-0.269c0.254-0.257,0.428-0.462,0.55-0.646c0.063-0.094,0.186-0.255,0.452-0.52
				c0.716-0.825,1.467-1.604,2.23-2.315c0.761-0.698,1.567-1.43,2.446-2.196c1.976-1.87,3.968-3.669,5.922-5.349
				c1.944-1.688,3.988-3.38,6.078-5.032c3.882-3.14,7.941-6.246,12.096-9.255C170.649,357.821,169.732,359.196,168.785,360.547z
				 M184.122,324.948c0.26,0.131,0.521,0.236,0.707,0.273C184.557,325.168,184.323,325.071,184.122,324.948z"/>
			<path fill="#053927" d="M141.567,332.528c0.031,0.079,0.07,0.189,0.106,0.307c-0.048-0.094-0.088-0.089-0.026,0.049
				c0.012-0.008,0.024-0.016,0.033-0.025c0.018,0.06,0.032,0.115,0.043,0.166c0.003,0.006,0.006,0.01,0.009,0.016
				c-0.011-0.077-0.028-0.139-0.049-0.184c0.143-0.155-0.026-0.421-0.113-0.478c-0.002,0.044-0.003,0.089-0.004,0.133
				C141.566,332.513,141.567,332.524,141.567,332.528z"/>
			<path fill="#053927" d="M141.953,330.621c-0.001,0.002-0.002,0.004-0.002,0.006c0.053-0.112,0.081-0.176,0.095-0.209
				c-0.029,0.063-0.06,0.125-0.088,0.188C141.956,330.61,141.954,330.616,141.953,330.621z"/>
		</g>
	</g>
</g>
<g id="Layer_3">
</g>
</svg>
