<?xml version="1.0" encoding="utf-8"?>
<!-- Generator: Adobe Illustrator 16.0.0, SVG Export Plug-In . SVG Version: 6.00 Build 0)  -->
<!DOCTYPE svg PUBLIC "-//W3C//DTD SVG 1.1//EN" "http://www.w3.org/Graphics/SVG/1.1/DTD/svg11.dtd">
<svg version="1.1" xmlns="http://www.w3.org/2000/svg" xmlns:xlink="http://www.w3.org/1999/xlink" x="0px" y="0px"
	 width="461.978px" height="157.488px" viewBox="0 0 461.978 157.488" enable-background="new 0 0 461.978 157.488"
	 xml:space="preserve">
<g id="Layer_1">
	<path fill-rule="evenodd" clip-rule="evenodd" fill="#053927" d="M172.438,77.526c-0.636,29.324-28.19,52.897-54.75,46.841
		c-21.055-4.802-32.302-23.965-27.203-44.927c3.989-16.361,11.753-29.488,27.303-37.021
		C144.21,29.613,173.074,48.199,172.438,77.526z"/>
	<path fill-rule="evenodd" clip-rule="evenodd" fill="#A8C06F" d="M270.615,74.465c0.008,23.896-21.102,44.51-45.494,44.435
		c-22.44-0.069-38.564-16.485-39.108-38.492c-0.681-27.379,26.896-43.229,46.681-45.149
		C254.023,33.191,270.615,52.021,270.615,74.465z"/>
	<path fill-rule="evenodd" clip-rule="evenodd" fill="#DBEAB5" d="M314.478,114.898c-21.874,0.006-36.467-14.031-37.041-34.428
		c-0.666-23.588,26.996-41.658,43.756-42.83c19.332-1.351,36.062,16.861,35.907,36.369
		C356.924,97.197,338.473,114.892,314.478,114.898z"/>
</g>
<g id="Layer_2">
</g>
<g id="Layer_3">
</g>
</svg>
